<?xml version="1.0" encoding="utf-8"?>
<!-- Generator: Adobe Illustrator 28.3.0, SVG Export Plug-In . SVG Version: 6.00 Build 0)  -->
<svg version="1.1" id="图层_3" xmlns="http://www.w3.org/2000/svg" xmlns:xlink="http://www.w3.org/1999/xlink" x="0px" y="0px"
	 viewBox="0 0 80 80" style="enable-background:new 0 0 80 80;" xml:space="preserve">
<style type="text/css">
	.st0{fill:#BFBAB6;}
	.st1{fill:#FFFFFF;}
	.st2{fill:#754E34;}
</style>
<circle class="st0" cx="40" cy="40" r="38"/>
<g>
	<path class="st1" d="M40.69,23.2c-15.98,0-26.31,9.15-26.31,23.31c0,13.21,8.61,19.63,26.31,19.63c8.14,0,14.48-1.44,18.86-4.29
		C64.56,58.6,67,53.58,67,46.51C67,32.35,56.67,23.2,40.69,23.2z M19.83,45.94c-1.85-4.1,0.32-9.79,4.85-12.71
		c4.53-2.91,9.71-1.95,11.56,2.15c1.85,4.1-0.32,9.79-4.85,12.71C26.86,51,21.68,50.04,19.83,45.94z M48.87,53.77
		c-0.2,0.44-0.47,0.84-0.81,1.19c-0.32,0.33-0.69,0.61-1.09,0.82c-0.39,0.21-0.82,0.35-1.27,0.44c-0.27,0.05-0.55,0.07-0.84,0.07
		c-0.16,0-0.31-0.01-0.47-0.02c-0.44-0.04-0.86-0.13-1.26-0.27c-0.46-0.16-0.9-0.38-1.31-0.64c-0.44-0.28-0.82-0.61-1.15-0.97
		c-0.05-0.05-0.09-0.11-0.13-0.16c-0.04,0.05-0.09,0.11-0.13,0.16c-0.32,0.36-0.71,0.68-1.15,0.96c-0.4,0.26-0.84,0.48-1.3,0.64
		c-0.42,0.15-0.84,0.24-1.26,0.28c-0.15,0.01-0.3,0.02-0.46,0.02c-0.29,0-0.58-0.03-0.85-0.08c-0.45-0.08-0.87-0.23-1.27-0.44
		c-0.4-0.21-0.77-0.48-1.09-0.82c-0.37-0.38-0.64-0.76-0.83-1.16c-0.21-0.44-0.32-0.91-0.35-1.44c-0.04-0.65,0.47-1.21,1.12-1.25
		c0.66-0.03,1.21,0.47,1.25,1.12c0.01,0.23,0.05,0.41,0.13,0.57c0.08,0.17,0.2,0.34,0.38,0.52c0.15,0.15,0.31,0.28,0.49,0.37
		c0.19,0.1,0.39,0.17,0.6,0.21c0.21,0.04,0.43,0.05,0.67,0.03c0.22-0.02,0.45-0.07,0.68-0.15c0.29-0.1,0.57-0.24,0.82-0.41
		c0.27-0.17,0.49-0.36,0.67-0.56c0.19-0.21,0.33-0.43,0.42-0.66c0.09-0.23,0.17-0.5,0.23-0.78c0.04-0.2,0.06-0.4,0.06-0.57
		c0-0.01,0-0.03,0-0.04c0-0.05,0-0.1,0-0.14c-0.01-0.13,0.01-0.25,0.04-0.37c-0.92-0.91-1.76-2.4-1.52-2.94
		c0.25-0.58,1.49-0.84,2.78-0.89c1.29,0,2.43,0.44,2.58,0.89c0.17,0.51-0.69,2.05-1.53,2.97c0.03,0.11,0.04,0.22,0.03,0.34
		c0,0.04,0,0.09,0,0.14c0,0.01,0,0.03,0,0.04c0,0.17,0.03,0.36,0.07,0.58c0.05,0.28,0.13,0.56,0.22,0.78
		c0.1,0.23,0.24,0.45,0.42,0.66c0.19,0.21,0.41,0.4,0.67,0.56c0.26,0.17,0.54,0.3,0.83,0.41c0.2,0.07,0.43,0.12,0.67,0.14
		c0.24,0.02,0.47,0.01,0.67-0.02c0.22-0.04,0.42-0.11,0.6-0.2c0.18-0.1,0.35-0.22,0.49-0.37c0.15-0.15,0.26-0.32,0.35-0.51
		c0.08-0.18,0.13-0.39,0.16-0.63c0.06-0.65,0.64-1.13,1.29-1.07c0.65,0.06,1.13,0.64,1.07,1.29C49.18,52.89,49.06,53.35,48.87,53.77
		z M60.95,45.94c-1.85,4.1-7.02,5.07-11.56,2.15c-4.53-2.91-6.7-8.6-4.85-12.71c1.85-4.1,7.03-5.07,11.56-2.15
		C60.63,36.14,62.8,41.83,60.95,45.94z"/>
	<path class="st2" d="M67.18,33.45c0.03-0.02,0.05-0.04,0.08-0.07c0.51-0.43,0.99-0.9,1.41-1.41c0.02-0.02,0.04-0.05,0.06-0.07
		c0.09-0.11,0.18-0.23,0.27-0.35c0.03-0.04,0.06-0.08,0.09-0.12c0.08-0.11,0.16-0.23,0.24-0.34c0.03-0.04,0.06-0.09,0.09-0.14
		c0.11-0.17,0.22-0.35,0.33-0.53c0.06-0.1,0.11-0.19,0.17-0.29c0.04-0.07,0.08-0.15,0.11-0.22c0.06-0.11,0.11-0.23,0.17-0.34
		c0.03-0.07,0.06-0.13,0.09-0.2c0.06-0.13,0.12-0.27,0.17-0.41c0.02-0.05,0.04-0.1,0.06-0.15c0.15-0.39,0.27-0.79,0.38-1.2
		c0-0.02,0.01-0.04,0.01-0.06c0.04-0.18,0.08-0.36,0.12-0.55c0.01-0.05,0.02-0.1,0.03-0.15c0.03-0.15,0.05-0.31,0.07-0.47
		c0.01-0.06,0.02-0.12,0.02-0.18c0.02-0.15,0.03-0.31,0.04-0.46c0-0.06,0.01-0.12,0.01-0.17c0.01-0.21,0.02-0.42,0.02-0.63
		c0-6.05-4.92-10.98-10.98-10.98c-0.18,0-0.36,0.01-0.53,0.01c-0.04,0-0.09,0.01-0.13,0.01c-0.14,0.01-0.27,0.02-0.41,0.03
		c-0.04,0-0.08,0.01-0.11,0.01c-0.15,0.02-0.31,0.04-0.46,0.06c-0.01,0-0.03,0-0.04,0.01c-3.95,0.6-7.24,3.29-8.61,7.05
		c-2.91-0.73-6.02-1.12-9.26-1.12c-3.28,0-6.39,0.37-9.27,1.07c-1.38-3.74-4.67-6.41-8.59-7.01c-0.02,0-0.04-0.01-0.06-0.01
		c-0.15-0.02-0.3-0.04-0.44-0.06c-0.04,0-0.08-0.01-0.12-0.01c-0.13-0.01-0.27-0.02-0.4-0.03c-0.05,0-0.09-0.01-0.14-0.01
		c-0.18-0.01-0.35-0.01-0.53-0.01c-6.05,0-10.98,4.92-10.98,10.98c0,0.21,0.01,0.42,0.02,0.63c0,0.06,0.01,0.11,0.01,0.17
		c0.01,0.16,0.03,0.31,0.04,0.47c0.01,0.06,0.01,0.11,0.02,0.17c0.02,0.16,0.05,0.33,0.08,0.49c0.01,0.04,0.01,0.08,0.02,0.12
		c0.04,0.2,0.08,0.39,0.13,0.59c0,0,0,0.01,0,0.01c0.11,0.42,0.24,0.84,0.39,1.24c0.01,0.02,0.01,0.03,0.02,0.04
		c0.07,0.18,0.14,0.35,0.22,0.52c0.02,0.04,0.03,0.07,0.05,0.11c0.07,0.15,0.14,0.3,0.22,0.45c0.02,0.04,0.04,0.08,0.06,0.13
		c0.08,0.16,0.17,0.31,0.26,0.46c0.02,0.03,0.03,0.05,0.04,0.08c0.1,0.16,0.2,0.33,0.31,0.48c0.05,0.08,0.11,0.15,0.16,0.23
		c0.06,0.08,0.12,0.16,0.18,0.24c0.07,0.09,0.14,0.18,0.21,0.26c0.05,0.06,0.1,0.12,0.15,0.18c0.08,0.09,0.16,0.19,0.24,0.28
		c0.04,0.04,0.07,0.08,0.11,0.12c0.21,0.22,0.42,0.44,0.65,0.64c0,0,0.01,0.01,0.01,0.01c0.1,0.09,0.2,0.18,0.3,0.26
		c0.05,0.04,0.1,0.09,0.15,0.13c0.03,0.03,0.07,0.06,0.1,0.08c-2.03,3.74-3.08,8.11-3.08,12.96c0,8.19,2.99,14.28,8.89,18.08
		c4.85,3.12,11.77,4.71,20.57,4.71c24.35,0,29.47-12.39,29.47-22.79c0-4.83-1.06-9.19-3.12-12.94
		C67.08,33.54,67.13,33.49,67.18,33.45z M59.55,61.86c-4.38,2.85-10.72,4.29-18.86,4.29c-17.7,0-26.31-6.42-26.31-19.63
		c0-14.16,10.33-23.31,26.31-23.31C56.67,23.2,67,32.35,67,46.51C67,53.58,64.56,58.6,59.55,61.86z"/>
	<path class="st2" d="M36.24,35.38c-1.85-4.1-7.03-5.07-11.56-2.15c-4.53,2.91-6.7,8.6-4.85,12.71c1.85,4.1,7.03,5.07,11.56,2.15
		C35.92,45.18,38.09,39.49,36.24,35.38z M29.76,43.1c-1.09,0-1.97-0.88-1.97-1.97c0-1.09,0.88-1.97,1.97-1.97
		c1.09,0,1.97,0.88,1.97,1.97C31.73,42.21,30.85,43.1,29.76,43.1z"/>
	<path class="st2" d="M56.1,33.23c-4.53-2.91-9.71-1.95-11.56,2.15c-1.85,4.1,0.32,9.79,4.85,12.71c4.53,2.91,9.71,1.95,11.56-2.15
		C62.8,41.83,60.63,36.14,56.1,33.23z M51.32,43.1c-1.09,0-1.97-0.88-1.97-1.97c0-1.09,0.88-1.97,1.97-1.97
		c1.09,0,1.97,0.88,1.97,1.97C53.29,42.21,52.41,43.1,51.32,43.1z"/>
	<path class="st2" d="M48.16,51.11c-0.65-0.07-1.23,0.42-1.29,1.07c-0.02,0.23-0.07,0.44-0.16,0.63c-0.08,0.19-0.2,0.36-0.35,0.51
		c-0.15,0.15-0.31,0.27-0.49,0.37c-0.18,0.1-0.39,0.16-0.6,0.2c-0.2,0.04-0.43,0.05-0.67,0.02c-0.24-0.02-0.47-0.07-0.67-0.14
		c-0.29-0.1-0.57-0.24-0.83-0.41c-0.26-0.16-0.48-0.35-0.67-0.56c-0.18-0.2-0.33-0.42-0.42-0.66c-0.09-0.22-0.17-0.5-0.22-0.78
		c-0.04-0.21-0.06-0.41-0.07-0.58c0-0.01,0-0.03,0-0.04c0-0.05,0-0.1,0-0.14c0.01-0.12-0.01-0.23-0.03-0.34
		c0.84-0.92,1.7-2.46,1.53-2.97c-0.15-0.45-1.29-0.89-2.58-0.89c-1.29,0.05-2.53,0.31-2.78,0.89c-0.24,0.54,0.61,2.03,1.52,2.94
		c-0.03,0.12-0.05,0.24-0.04,0.37c0,0.04,0,0.09,0,0.14c0,0.01,0,0.03,0,0.04c0,0.18-0.02,0.38-0.06,0.57
		c-0.05,0.28-0.13,0.56-0.23,0.78c-0.09,0.23-0.23,0.45-0.42,0.66c-0.18,0.2-0.41,0.39-0.67,0.56c-0.26,0.16-0.53,0.3-0.82,0.41
		c-0.23,0.08-0.45,0.13-0.68,0.15c-0.23,0.02-0.46,0.01-0.67-0.03c-0.21-0.04-0.41-0.11-0.6-0.21c-0.18-0.09-0.34-0.22-0.49-0.37
		c-0.18-0.19-0.3-0.36-0.38-0.52c-0.08-0.16-0.12-0.34-0.13-0.57c-0.04-0.65-0.59-1.15-1.25-1.12c-0.65,0.04-1.15,0.59-1.12,1.25
		c0.03,0.53,0.14,1.01,0.35,1.44c0.19,0.41,0.46,0.79,0.83,1.16c0.32,0.33,0.69,0.61,1.09,0.82c0.4,0.21,0.83,0.36,1.27,0.44
		c0.28,0.05,0.56,0.08,0.85,0.08c0.15,0,0.3-0.01,0.46-0.02c0.42-0.04,0.84-0.13,1.26-0.28c0.46-0.17,0.9-0.38,1.3-0.64
		c0.44-0.28,0.83-0.61,1.15-0.96c0.05-0.05,0.09-0.11,0.13-0.16c0.04,0.05,0.09,0.11,0.13,0.16c0.33,0.36,0.71,0.69,1.15,0.97
		c0.41,0.26,0.85,0.48,1.31,0.64c0.39,0.14,0.82,0.23,1.26,0.27c0.16,0.01,0.32,0.02,0.47,0.02c0.29,0,0.57-0.03,0.84-0.07
		c0.45-0.08,0.88-0.23,1.27-0.44c0.4-0.21,0.77-0.49,1.09-0.82c0.34-0.35,0.61-0.75,0.81-1.19c0.19-0.42,0.3-0.88,0.35-1.37
		C49.28,51.75,48.81,51.17,48.16,51.11z"/>
	<path class="st1" d="M29.76,39.15c-1.09,0-1.97,0.88-1.97,1.97c0,1.09,0.88,1.97,1.97,1.97c1.09,0,1.97-0.88,1.97-1.97
		C31.73,40.04,30.85,39.15,29.76,39.15z"/>
	<path class="st1" d="M51.32,39.15c-1.09,0-1.97,0.88-1.97,1.97c0,1.09,0.88,1.97,1.97,1.97c1.09,0,1.97-0.88,1.97-1.97
		C53.29,40.04,52.41,39.15,51.32,39.15z"/>
</g>
</svg>
