<?xml version="1.0" encoding="utf-8"?>
<!-- Generator: Adobe Illustrator 28.3.0, SVG Export Plug-In . SVG Version: 6.00 Build 0)  -->
<svg version="1.1" id="图层_2" xmlns="http://www.w3.org/2000/svg" xmlns:xlink="http://www.w3.org/1999/xlink" x="0px" y="0px"
	 viewBox="0 0 80 80" style="enable-background:new 0 0 80 80;" xml:space="preserve">
<style type="text/css">
	.st0{fill:#FCF3CF;}
	.st1{fill:#FFF0C5;}
	.st2{fill:#754E34;}
	.st3{fill:#B9955B;}
</style>
<g id="图层_1_00000137134439270163122630000007010539737666218371_">
	<g id="图层_4">
		<circle class="st0" cx="40" cy="40" r="38"/>
	</g>
	<path class="st1" d="M16.55,53.88c-0.65-2.21-1.1-4.65-1.34-7.3c-0.01-0.11-0.02-0.22-0.03-0.32c-0.02-0.18-0.03-0.36-0.04-0.55
		c-0.01-0.15-0.02-0.29-0.03-0.44c-0.01-0.16-0.02-0.33-0.03-0.49c-0.01-0.18-0.02-0.35-0.03-0.53c-0.01-0.15-0.01-0.29-0.02-0.44
		c-0.01-0.21-0.01-0.43-0.02-0.64c0-0.12-0.01-0.24-0.01-0.36c0.01-0.35,0-0.69,0-1.04c0-5.17,0.66-9.9,1.95-14.07
		C13.12,28.12,9.93,33.37,9.6,40C9.25,47.18,12.36,53.38,16.55,53.88z"/>
	<path class="st1" d="M70.27,40c-0.31-6.33-3.23-11.39-6.83-12.2c1.29,4.16,1.96,8.86,1.96,13.98c0,0.33,0,0.67-0.01,1.01
		c0,0.07,0,0.13,0,0.2c-0.01,0.26-0.01,0.51-0.02,0.77c-0.13,3.73-0.63,7.08-1.51,10.03C67.78,52.84,70.62,46.87,70.27,40z"/>
	<path class="st2" d="M72.97,39.72c-0.44-8.94-5.07-15.95-10.53-15.95c-0.17,0-0.34,0.01-0.51,0.03c-1.09-2.4-2.42-4.57-3.99-6.47
		c-4.47-5.4-10.77-8.37-17.73-8.37c-7.09,0-13.22,2.86-17.72,8.26c-1.61,1.93-2.97,4.16-4.08,6.63c-0.1-0.01-0.19-0.03-0.29-0.04
		c-0.22-0.02-0.45-0.03-0.67-0.03c-5.46,0-10.09,7.01-10.53,15.95c-0.46,9.37,3.81,17.48,9.52,18.08c0.22,0.02,0.45,0.03,0.67,0.03
		l0,0c0.31,0,0.61-0.03,0.91-0.07c0.96,2.06,2.16,3.86,3.59,5.41c0.04,0.05,0.08,0.09,0.13,0.14c0.1,0.1,0.19,0.2,0.29,0.3
		c0.07,0.07,0.15,0.15,0.22,0.22c0.08,0.08,0.17,0.16,0.25,0.24c0.04,0.04,0.08,0.08,0.13,0.12c0.03,0.03,0.06,0.06,0.09,0.08
		c0.2,0.19,0.41,0.37,0.62,0.55c0.04,0.03,0.07,0.06,0.11,0.09c0.25,0.21,0.51,0.41,0.77,0.6c0.04,0.03,0.08,0.06,0.12,0.09
		c0.26,0.19,0.53,0.38,0.8,0.56l0,0c0.06,0.04,0.12,0.08,0.18,0.12c0.02,0.02,0.05,0.02,0.07,0.04c3.87,2.46,8.84,3.7,14.82,3.7
		c5.78,0,10.29-1.18,13.79-3.17c0.03-0.02,0.07-0.02,0.1-0.04c3.6-2.06,6.34-5.07,8.23-9.01c0.15,0.01,0.3,0.02,0.45,0.02
		c0.22,0,0.45-0.01,0.67-0.03C69.16,57.2,73.43,49.09,72.97,39.72z M9.6,40c0.33-6.63,3.51-11.88,7.35-12.29
		C15.67,31.88,15,36.61,15,41.77c0,0.35,0,0.69,0.01,1.03c0,0.12,0.01,0.24,0.01,0.36c0,0.21,0.01,0.43,0.02,0.64
		c0.01,0.15,0.01,0.3,0.02,0.44c0.01,0.18,0.02,0.35,0.03,0.53c0.01,0.17,0.02,0.33,0.03,0.49c0.01,0.15,0.02,0.3,0.03,0.44
		c0.01,0.18,0.03,0.37,0.04,0.55c0.01,0.11,0.02,0.22,0.03,0.32c0.24,2.65,0.68,5.09,1.34,7.3C12.36,53.38,9.25,47.18,9.6,40z
		 M40.2,12.87c13.67,0,22.5,11.35,22.5,28.91c0,6.28-1.08,11.28-3.27,15.09c0.92-3.43,1.43-7.35,1.43-11.45
		c0-11.96-4.47-21.51-10.87-23.24c-0.92-0.25-1.82-0.37-2.66-0.37c-3.25,0-5.71,1.83-7.19,5.24c-1.58-3.37-4.19-5.23-7.53-5.23
		c-0.85,0-1.74,0.12-2.66,0.36c-6.41,1.68-10.88,11.23-10.88,23.24c0,3.5,0.37,6.86,1.04,9.89c-1.62-3.58-2.42-8.07-2.42-13.54
		C17.7,24.21,26.53,12.87,40.2,12.87z M26.54,62.81c-2.9-3.27-4.77-10.06-4.77-17.39c0-10.08,3.56-18.05,8.66-19.39
		c0.75-0.2,1.49-0.3,2.18-0.3c3.43,0,5.54,2.31,6.27,6.86c0.14,0.89,0.69,1.51,1.31,1.51h0.01c0.63-0.01,1.18-0.65,1.31-1.55
		c0.67-4.6,2.57-6.84,5.81-6.84c0.68,0,1.4,0.1,2.16,0.31c4.18,1.13,8.67,7.67,8.67,19.39c0,7.78-2.03,14.75-5.18,17.83
		c-3.4,1.91-7.67,2.87-12.78,2.87C34.59,66.12,30.04,65.02,26.54,62.81z M65.37,43.75c0.01-0.26,0.02-0.51,0.02-0.77
		c0-0.07,0-0.13,0-0.2c0.01-0.34,0.01-0.67,0.01-1.01c0-5.12-0.67-9.82-1.96-13.98c3.6,0.81,6.52,5.88,6.83,12.2
		c0.34,6.87-2.49,12.84-6.41,13.79C64.73,50.83,65.24,47.48,65.37,43.75z"/>
	<path class="st1" d="M52.98,63.25c3.15-3.08,5.18-10.04,5.18-17.83c0-11.72-4.49-18.27-8.67-19.39c-0.76-0.2-1.49-0.31-2.16-0.31
		c-3.24,0-5.14,2.24-5.81,6.84c-0.13,0.9-0.67,1.54-1.31,1.55H40.2c-0.63,0-1.17-0.63-1.31-1.51c-0.73-4.56-2.84-6.86-6.27-6.86
		c-0.69,0-1.42,0.1-2.18,0.3c-5.1,1.34-8.66,9.31-8.66,19.39c0,7.32,1.87,14.11,4.77,17.39c3.5,2.22,8.04,3.31,13.66,3.31
		C45.31,66.12,49.59,65.15,52.98,63.25z M49.42,36.92c1.22,0,2.2,1.43,2.2,3.19s-0.99,3.19-2.2,3.19c-1.22,0-2.2-1.43-2.2-3.19
		C47.22,38.35,48.21,36.92,49.42,36.92z M30.98,43.3c-1.22,0-2.2-1.43-2.2-3.19s0.99-3.19,2.2-3.19c1.22,0,2.2,1.43,2.2,3.19
		C33.19,41.87,32.2,43.3,30.98,43.3z M37.99,56.17c-0.48,0.25-0.97,0.37-1.45,0.37c-1.05,0-2.05-0.57-2.77-1.64
		c-0.64-0.96-0.96-1.99-1.01-3.24c-0.03-0.81,0.4-1.5,0.96-1.54c0.56-0.04,1.03,0.58,1.06,1.39c0.02,0.54,0.13,0.9,0.44,1.35
		c0.6,0.9,1.47,0.88,2.08,0.56c0.79-0.41,1.4-1.16,1.64-2.01c0.14-0.5,0.23-1.13,0.25-1.63c0-0.07,0-0.14,0-0.22
		c0-0.02,0-0.04,0-0.06c-0.01-0.16,0.01-0.31,0.03-0.45c-0.79-1.13-1.51-2.98-1.31-3.65c0.22-0.72,1.27-1.05,2.38-1.11
		c1.1,0,2.08,0.55,2.21,1.11c0.15,0.63-0.59,2.55-1.31,3.68c0.02,0.14,0.04,0.28,0.03,0.42c0,0.02,0,0.04,0,0.07
		c0,0.07,0,0.14,0,0.21c0.01,0.51,0.1,1.14,0.24,1.63c0.24,0.85,0.85,1.6,1.64,2.01c0.61,0.32,1.48,0.34,2.08-0.56
		c0.25-0.37,0.4-0.85,0.43-1.41c0.05-0.81,0.55-1.4,1.1-1.32c0.56,0.08,0.96,0.79,0.91,1.6c-0.08,1.22-0.42,2.32-0.99,3.17
		c-0.72,1.07-1.72,1.65-2.77,1.65c-0.48,0-0.97-0.12-1.44-0.37c-0.91-0.47-1.67-1.25-2.22-2.2C39.66,54.92,38.9,55.7,37.99,56.17z"
		/>
	<path class="st2" d="M42.42,56.17c0.48,0.25,0.96,0.37,1.44,0.37c1.05,0,2.06-0.57,2.77-1.65c0.57-0.85,0.91-1.95,0.99-3.17
		c0.05-0.81-0.36-1.52-0.91-1.6c-0.55-0.08-1.05,0.52-1.1,1.32c-0.04,0.56-0.18,1.04-0.43,1.41c-0.6,0.9-1.47,0.88-2.08,0.56
		c-0.79-0.41-1.4-1.16-1.64-2.01c-0.14-0.49-0.23-1.12-0.24-1.63c0-0.07,0-0.14,0-0.21c0-0.02,0-0.04,0-0.07
		c0.01-0.15-0.01-0.29-0.03-0.42c0.72-1.13,1.46-3.05,1.31-3.68c-0.13-0.56-1.1-1.11-2.21-1.11c-1.1,0.06-2.16,0.38-2.38,1.11
		c-0.2,0.67,0.52,2.53,1.31,3.65c-0.03,0.14-0.04,0.29-0.03,0.45c0,0.02,0,0.04,0,0.06c0,0.07,0,0.14,0,0.22
		c-0.01,0.51-0.11,1.14-0.25,1.63c-0.24,0.85-0.85,1.6-1.64,2.01c-0.61,0.32-1.48,0.34-2.08-0.56c-0.3-0.45-0.42-0.81-0.44-1.35
		c-0.03-0.81-0.51-1.43-1.06-1.39c-0.56,0.04-0.99,0.73-0.96,1.54c0.05,1.25,0.37,2.28,1.01,3.24c0.72,1.07,1.72,1.64,2.77,1.64
		c0.48,0,0.97-0.12,1.45-0.37c0.91-0.47,1.67-1.25,2.21-2.2C40.75,54.93,41.51,55.7,42.42,56.17z"/>
	<path class="st2" d="M30.98,36.92c-1.22,0-2.2,1.43-2.2,3.19s0.99,3.19,2.2,3.19c1.22,0,2.2-1.43,2.2-3.19
		C33.19,38.35,32.2,36.92,30.98,36.92z"/>
	<path class="st2" d="M49.42,43.3c1.22,0,2.2-1.43,2.2-3.19s-0.99-3.19-2.2-3.19c-1.22,0-2.2,1.43-2.2,3.19
		C47.22,41.87,48.21,43.3,49.42,43.3z"/>
	<path class="st3" d="M17.7,41.77c0,5.47,0.8,9.96,2.42,13.54c-0.67-3.03-1.04-6.4-1.04-9.89c0-12.01,4.47-21.56,10.88-23.24
		c0.91-0.24,1.8-0.36,2.66-0.36c3.34,0,5.95,1.86,7.53,5.23c1.48-3.41,3.94-5.24,7.19-5.24c0.84,0,1.73,0.13,2.66,0.37
		c6.4,1.73,10.87,11.28,10.87,23.24c0,4.1-0.51,8.03-1.43,11.45c2.19-3.81,3.27-8.81,3.27-15.09c0-17.56-8.83-28.91-22.5-28.91
		C26.53,12.87,17.7,24.21,17.7,41.77z"/>
</g>
</svg>
