<?xml version="1.0" encoding="utf-8"?>
<!-- Generator: Adobe Illustrator 28.3.0, SVG Export Plug-In . SVG Version: 6.00 Build 0)  -->
<svg version="1.1" xmlns="http://www.w3.org/2000/svg" xmlns:xlink="http://www.w3.org/1999/xlink" x="0px" y="0px"
	 viewBox="0 0 80 80" style="enable-background:new 0 0 80 80;" xml:space="preserve">
<style type="text/css">
	.st0{fill:#CFD5E5;}
	.st1{fill:#FFF0C5;}
	.st2{fill:#9C8572;}
	.st3{fill:#754E34;}
	.st4{fill:#FFFFFF;}
	.st5{fill:#FFCBAC;}
</style>
<g id="图层_1">
	<circle class="st0" cx="39.88" cy="40.46" r="38"/>
</g>
<g id="图层_2">
	<g>
		<path class="st1" d="M30.83,12.8c-0.39,0.61-0.81,2.47-1.12,4.75c0.67-0.4,1.37-0.76,2.08-1.08C31.5,14.69,31.15,13.31,30.83,12.8
			z"/>
		<path class="st1" d="M49.55,12.72c-0.33,0.52-0.68,1.93-0.97,3.74c0.72,0.32,1.42,0.69,2.1,1.09
			C50.37,15.23,49.94,13.34,49.55,12.72z"/>
		<path class="st2" d="M61.12,20.5c-1.25-0.32-2.49-0.48-3.69-0.48c-1.05,0-2.04,0.13-2.94,0.37c3.65,3.39,6.26,8.05,7.26,13.33
			c3.58-0.21,6.88-2.81,8.41-4.22C68.83,27.01,65.51,21.61,61.12,20.5z"/>
		<path class="st3" d="M72.83,29.05c-0.18-0.41-4.49-10.1-11.28-11.82c-1.39-0.35-2.78-0.53-4.12-0.53c-1.6,0-3.06,0.25-4.33,0.71
			c-0.06-0.47-0.12-0.96-0.2-1.45c-0.44-2.87-1.27-6.68-3.34-6.68c-1.98,0-2.82,3.48-3.28,6.3c-1.93-0.6-3.97-0.93-6.07-0.93
			c-2.12,0-4.16,0.33-6.1,0.94c-0.46-2.8-1.3-6.23-3.27-6.23c-2.07,0-2.9,3.81-3.34,6.68c-0.07,0.46-0.13,0.93-0.19,1.38
			c-1.28-0.46-2.74-0.71-4.34-0.71c-1.34,0-2.73,0.18-4.12,0.53c-6.79,1.71-11.1,11.4-11.28,11.82c-0.31,0.71-0.19,1.63,0.27,2.15
			c0.2,0.23,4.85,5.34,10.43,5.82c-0.03,0.49-0.04,0.98-0.04,1.48c0,0.54,0.02,4.49,0.05,8.23c-1.2,2-1.81,4.63-1.81,7.84
			c0,6.58,2.5,11.2,7.42,13.73c4.67,2.4,11.17,2.7,16.32,2.7s11.64-0.31,16.32-2.7c4.93-2.52,7.42-7.14,7.42-13.73
			c0-3.1-0.57-5.67-1.69-7.64c-0.01-2.44-0.03-4.97-0.04-6.69c-0.01-0.91-0.01-1.55-0.01-1.75c0-0.5-0.02-0.99-0.04-1.48
			c5.56-0.49,10.2-5.59,10.41-5.82C73.02,30.69,73.14,29.76,72.83,29.05z M49.55,12.72c0.39,0.62,0.82,2.5,1.13,4.82
			c-0.68-0.4-1.38-0.76-2.1-1.09C48.87,14.65,49.23,13.24,49.55,12.72z M30.83,12.8c0.32,0.51,0.67,1.9,0.96,3.67
			c-0.71,0.32-1.41,0.68-2.08,1.08C30.02,15.26,30.44,13.41,30.83,12.8z M10.23,29.51c1.33-2.5,4.65-7.9,9.04-9.01
			c1.25-0.32,2.49-0.48,3.69-0.48c1.06,0,2.05,0.13,2.95,0.37c-3.64,3.39-6.26,8.04-7.25,13.33C15.07,33.53,11.76,30.92,10.23,29.51
			z M40.19,67.58c-9.1,0-14.76-2.38-14.76-6.2c0-3.83,5.65-6.2,14.76-6.2c9.1,0,14.76,2.38,14.76,6.2
			C54.95,65.2,49.29,67.58,40.19,67.58z M56.7,64.61c0.43-0.97,0.64-2.05,0.64-3.24c0-6.23-5.93-9.52-17.15-9.52
			s-17.15,3.29-17.15,9.52c0,1.19,0.22,2.27,0.64,3.24c-3.09-1.98-4.84-5.12-4.84-10.04c0-2.65,0.48-4.63,1.48-6.07
			c0.22-0.31,0.34-0.74,0.34-1.17c-0.04-3.88-0.06-8.32-0.06-8.83c0-10.78,7.97-19.64,18.06-20.46c0.51-0.04,1.02-0.07,1.54-0.07
			c10.81,0,19.6,9.21,19.6,20.53c0,0.2,0,0.85,0.01,1.78c0.01,0.73,0.01,1.61,0.02,2.57c0.01,1.47,0.02,3.12,0.02,4.7
			c0,0.41,0.11,0.8,0.31,1.11c0.93,1.42,1.38,3.35,1.38,5.91C61.54,59.49,59.79,62.64,56.7,64.61z M61.74,33.73
			c-1-5.29-3.61-9.95-7.26-13.33c0.9-0.24,1.89-0.37,2.94-0.37c1.2,0,2.44,0.16,3.69,0.48c4.39,1.11,7.71,6.51,9.04,9.01
			C68.62,30.92,65.32,33.52,61.74,33.73z"/>
		<path class="st2" d="M25.91,20.4c-0.9-0.24-1.89-0.37-2.95-0.37c-1.2,0-2.44,0.16-3.69,0.48c-4.39,1.11-7.71,6.51-9.04,9.01
			c1.53,1.41,4.84,4.02,8.43,4.22C19.65,28.44,22.26,23.78,25.91,20.4z"/>
		<path class="st4" d="M59.85,47.55c0-1.58-0.01-3.23-0.02-4.7c-9.47-2.47-19.19-11.76-21.16-24.81
			C28.57,18.87,20.6,27.73,20.6,38.5c0,0.5,0.02,4.95,0.06,8.83c0,0.44-0.12,0.86-0.34,1.17c-1,1.43-1.48,3.42-1.48,6.07
			c0,4.92,1.75,8.06,4.84,10.04c-0.43-0.97-0.64-2.05-0.64-3.24c0-6.23,5.93-9.52,17.15-9.52s17.15,3.29,17.15,9.52
			c0,1.19-0.22,2.27-0.64,3.24c3.09-1.98,4.84-5.12,4.84-10.04c0-2.56-0.45-4.49-1.38-5.91C59.96,48.36,59.85,47.96,59.85,47.55z
			 M32.25,47.14c-1.07,0-1.94-1.2-1.94-2.69c0-1.48,0.87-2.69,1.94-2.69c1.07,0,1.94,1.2,1.94,2.69
			C34.19,45.94,33.32,47.14,32.25,47.14z M48.22,47.16c-1.07,0-1.94-1.21-1.94-2.7s0.87-2.7,1.94-2.7c1.07,0,1.94,1.21,1.94,2.7
			S49.29,47.16,48.22,47.16z"/>
		<path class="st2" d="M59.83,42.86c-0.01-0.96-0.01-1.84-0.02-2.57c-0.01-0.93-0.01-1.58-0.01-1.78c0-11.32-8.79-20.53-19.6-20.53
			c-0.52,0-1.03,0.03-1.54,0.07C40.64,31.1,50.36,40.39,59.83,42.86z"/>
		<path class="st5" d="M40.19,55.17c-9.1,0-14.76,2.38-14.76,6.2c0,3.83,5.65,6.2,14.76,6.2c9.1,0,14.76-2.38,14.76-6.2
			C54.95,57.55,49.29,55.17,40.19,55.17z M36.75,61.14c-0.54,0-0.97-0.61-0.97-1.35c0-0.75,0.44-1.35,0.97-1.35
			c0.54,0,0.97,0.61,0.97,1.35C37.73,60.54,37.29,61.14,36.75,61.14z M43.63,61.14c-0.54,0-0.97-0.61-0.97-1.35
			c0-0.75,0.44-1.35,0.97-1.35c0.54,0,0.97,0.61,0.97,1.35C44.6,60.54,44.17,61.14,43.63,61.14z"/>
		<path class="st3" d="M36.75,58.44c-0.54,0-0.97,0.61-0.97,1.35c0,0.75,0.44,1.35,0.97,1.35c0.54,0,0.97-0.61,0.97-1.35
			C37.73,59.05,37.29,58.44,36.75,58.44z"/>
		<path class="st3" d="M43.63,58.44c-0.54,0-0.97,0.61-0.97,1.35c0,0.75,0.44,1.35,0.97,1.35c0.54,0,0.97-0.61,0.97-1.35
			C44.6,59.05,44.17,58.44,43.63,58.44z"/>
		<path class="st3" d="M32.25,41.77c-1.07,0-1.94,1.2-1.94,2.69c0,1.48,0.87,2.69,1.94,2.69c1.07,0,1.94-1.2,1.94-2.69
			C34.19,42.97,33.32,41.77,32.25,41.77z"/>
		<path class="st3" d="M48.22,41.77c-1.07,0-1.94,1.21-1.94,2.7s0.87,2.7,1.94,2.7c1.07,0,1.94-1.21,1.94-2.7
			S49.29,41.77,48.22,41.77z"/>
	</g>
</g>
</svg>
