<?xml version="1.0" encoding="utf-8"?>
<!-- Generator: Adobe Illustrator 28.3.0, SVG Export Plug-In . SVG Version: 6.00 Build 0)  -->
<svg version="1.1" xmlns="http://www.w3.org/2000/svg" xmlns:xlink="http://www.w3.org/1999/xlink" x="0px" y="0px"
	 viewBox="0 0 80 80" style="enable-background:new 0 0 80 80;" xml:space="preserve">
<style type="text/css">
	.st0{fill:#E8E0BA;}
	.st1{fill:#FFFFFF;}
	.st2{fill:#754E34;}
	.st3{fill:#FFCD7D;}
	.st4{fill:#FFF3DB;}
</style>
<g id="图层_1">
	<circle class="st0" cx="39.88" cy="40.46" r="38"/>
	<g>
		<path class="st1" d="M27.95,15.36c2.23,0.56,4.12,2.04,5.34,4.18c0.26,0.45,0.47,0.92,0.66,1.4c0.84-0.51,1.81-0.8,2.84-0.8
			c1.17,0,2.3,0.38,3.26,1.09c0.96-0.71,2.09-1.09,3.26-1.09c1.14,0,2.2,0.36,3.11,0.98c0.19-0.54,0.43-1.07,0.72-1.58
			c1.13-1.98,2.84-3.39,4.86-4.04c-0.09,0-0.19-0.01-0.28-0.01c-1.39,0-2.74,0.5-3.78,1.4c-0.33,0.29-0.77,0.38-1.18,0.24
			c-0.41-0.13-0.73-0.48-0.86-0.92c-0.72-2.37-2.98-4.02-5.49-4.02c-2.44,0-4.62,1.53-5.42,3.8c-0.15,0.43-0.49,0.76-0.9,0.87
			c-0.41,0.11-0.84,0-1.17-0.3c-1.07-1-2.48-1.56-3.96-1.56c-0.54,0-1.08,0.08-1.6,0.23C27.56,15.28,27.76,15.31,27.95,15.36z"/>
		<path class="st1" d="M64.6,35.84c-0.44-0.15-0.77-0.55-0.87-1.04c-0.1-0.49,0.03-1.01,0.36-1.36c1.67-1.8,1.98-4.43,0.76-6.56
			c-0.83-1.44-2.26-2.44-3.88-2.76c-0.08,0.38-0.19,0.75-0.33,1.1c1.81,0.56,3.48,1.56,3.8,3.27c0.55,2.9-3.02,5.68-6.22,6.88
			c0.97,2.46,1.46,5.19,1.46,8.15c0,6-2.02,10.46-6.01,13.26c-3.25,2.28-7.88,3.44-13.74,3.44c-13.1,0-19.75-5.62-19.75-16.7
			c0-3.01,0.5-5.79,1.48-8.27c-3.12-1.26-6.47-3.96-5.94-6.77c0.34-1.78,2.15-2.79,4.04-3.34c-0.22-0.59-0.37-1.21-0.42-1.85
			c-1.61,0.32-3.03,1.32-3.86,2.75c-1.17,2.03-0.93,4.59,0.6,6.38c0.31,0.37,0.43,0.89,0.31,1.37c-0.12,0.48-0.47,0.86-0.91,1
			c-2.41,0.74-4.02,2.9-4.02,5.37c0,2.37,1.52,4.5,3.79,5.3c0.44,0.15,0.77,0.55,0.87,1.04c0.1,0.49-0.03,1-0.36,1.36
			c-1.67,1.8-1.97,4.43-0.76,6.56c1.02,1.77,2.93,2.86,4.99,2.86c0.36,0,0.72-0.03,1.07-0.1c0.43-0.08,0.88,0.08,1.18,0.44
			c0.3,0.36,0.41,0.86,0.31,1.33c-0.55,2.39,0.53,4.83,2.68,6.08c0.88,0.51,1.89,0.78,2.9,0.78c1.39,0,2.74-0.5,3.78-1.4
			c0.23-0.2,0.52-0.3,0.8-0.3c0.13,0,0.25,0.02,0.38,0.06c0.41,0.13,0.73,0.48,0.86,0.92c0.72,2.37,2.98,4.02,5.49,4.02
			c2.44,0,4.62-1.53,5.42-3.8c0.15-0.43,0.49-0.76,0.9-0.87c0.41-0.12,0.84,0,1.17,0.3c1.07,1,2.48,1.56,3.96,1.56
			c1.02,0,2.02-0.27,2.9-0.78c2.06-1.2,3.16-3.55,2.73-5.86c-0.09-0.47,0.05-0.97,0.36-1.31c0.31-0.34,0.76-0.49,1.19-0.39
			c0.43,0.1,0.87,0.15,1.31,0.15c2.06,0,3.98-1.1,5-2.86c1.17-2.03,0.92-4.59-0.6-6.38c-0.31-0.37-0.43-0.89-0.31-1.37
			c0.12-0.48,0.47-0.86,0.91-1c2.41-0.74,4.02-2.9,4.02-5.37C68.39,38.77,66.87,36.64,64.6,35.84z"/>
		<path class="st2" d="M71,41.14c0-2.98-1.53-5.69-3.93-7.22c1.47-2.6,1.51-5.9-0.02-8.56c-1.3-2.26-3.56-3.77-6.08-4.12
			c0,0,0,0,0-0.01c-0.27-1.31-0.84-2.48-1.59-3.42c-0.7-1.68-1.92-3.13-3.54-4.08c-1.25-0.73-2.68-1.11-4.11-1.11
			c-1.42,0-2.8,0.37-4.03,1.05c-1.45-2.66-4.2-4.35-7.28-4.35c-2.93,0-5.61,1.57-7.1,4.05c-1.3-0.8-2.79-1.23-4.33-1.23
			c-1.44,0-2.86,0.38-4.12,1.11c-1.75,1.01-3.03,2.61-3.7,4.44c-0.63,0.76-1.13,1.66-1.46,2.67c-2.64,0.26-5.05,1.8-6.41,4.16
			c-1.48,2.57-1.51,5.69-0.19,8.25c-2.59,1.48-4.23,4.27-4.23,7.41c0,2.98,1.52,5.69,3.93,7.22c-1.47,2.6-1.51,5.9,0.02,8.56
			c1.46,2.53,4.13,4.13,7,4.2c0,3.01,1.58,5.9,4.21,7.42c1.26,0.73,2.68,1.11,4.12,1.11c1.42,0,2.8-0.37,4.03-1.05
			c1.45,2.66,4.2,4.35,7.28,4.35c0,0,0,0,0,0c2.93,0,5.61-1.57,7.1-4.05c1.3,0.8,2.79,1.23,4.33,1.23c1.44,0,2.86-0.38,4.12-1.11
			c2.55-1.48,4.1-4.18,4.21-7.07c0.05,0,0.1,0,0.16,0c0,0,0,0,0,0c2.95,0,5.71-1.61,7.2-4.2c1.48-2.57,1.51-5.69,0.19-8.25
			C69.36,47.07,71,44.28,71,41.14z M64.37,46.51c-0.44,0.13-0.78,0.51-0.91,1c-0.12,0.48-0.01,1,0.31,1.37
			c1.52,1.79,1.77,4.35,0.6,6.38c-1.02,1.77-2.93,2.86-5,2.86c-0.44,0-0.88-0.05-1.31-0.15c-0.43-0.1-0.88,0.05-1.19,0.39
			c-0.31,0.34-0.45,0.83-0.36,1.31c0.43,2.31-0.67,4.66-2.73,5.86c-0.88,0.51-1.89,0.78-2.9,0.78c-1.48,0-2.89-0.55-3.96-1.56
			c-0.32-0.3-0.76-0.41-1.17-0.3c-0.41,0.11-0.74,0.44-0.9,0.87c-0.8,2.27-2.97,3.8-5.42,3.8c-2.51,0-4.77-1.65-5.49-4.02
			c-0.13-0.44-0.46-0.79-0.86-0.92c-0.12-0.04-0.25-0.06-0.38-0.06c-0.29,0-0.57,0.1-0.8,0.3c-1.05,0.9-2.39,1.4-3.78,1.4
			c-1.02,0-2.02-0.27-2.9-0.78c-2.15-1.25-3.23-3.69-2.68-6.08c0.11-0.47-0.01-0.97-0.31-1.33c-0.3-0.36-0.74-0.52-1.18-0.44
			c-0.35,0.07-0.71,0.1-1.07,0.1c-2.06,0-3.98-1.1-4.99-2.86c-1.22-2.12-0.92-4.76,0.76-6.56c0.33-0.35,0.46-0.87,0.36-1.36
			c-0.1-0.49-0.44-0.88-0.87-1.04c-2.27-0.8-3.79-2.93-3.79-5.3c0-2.48,1.62-4.63,4.02-5.37c0.44-0.13,0.78-0.51,0.91-1
			c0.12-0.48,0.01-1-0.31-1.37c-1.52-1.79-1.76-4.35-0.6-6.38c0.83-1.44,2.24-2.43,3.86-2.75c0.06,0.64,0.2,1.27,0.42,1.85
			c-1.89,0.55-3.7,1.56-4.04,3.34c-0.53,2.81,2.81,5.51,5.94,6.77c-0.98,2.48-1.48,5.25-1.48,8.27c0,11.08,6.64,16.7,19.75,16.7
			c5.87,0,10.49-1.16,13.74-3.44c3.99-2.8,6.01-7.26,6.01-13.26c0-2.96-0.49-5.69-1.46-8.15c3.2-1.21,6.77-3.98,6.22-6.88
			c-0.32-1.71-2-2.71-3.8-3.27c0.14-0.35,0.25-0.72,0.33-1.1c1.62,0.32,3.05,1.31,3.88,2.76c1.22,2.12,0.92,4.76-0.76,6.56
			c-0.33,0.35-0.46,0.87-0.36,1.36c0.11,0.49,0.44,0.88,0.87,1.04c2.27,0.8,3.79,2.93,3.79,5.3C68.39,43.61,66.78,45.77,64.37,46.51
			z M32.93,16.57c0.32,0.3,0.76,0.41,1.17,0.3c0.41-0.11,0.74-0.44,0.9-0.87c0.8-2.27,2.97-3.8,5.42-3.8c2.51,0,4.77,1.65,5.49,4.02
			c0.13,0.44,0.46,0.79,0.86,0.92c0.41,0.13,0.84,0.04,1.18-0.24c1.05-0.9,2.39-1.4,3.78-1.4c0.09,0,0.19,0,0.28,0.01
			c-2.02,0.64-3.73,2.06-4.86,4.04c-0.29,0.51-0.53,1.03-0.72,1.58c-0.9-0.62-1.97-0.98-3.11-0.98c-1.17,0-2.3,0.38-3.26,1.09
			c-0.96-0.71-2.09-1.09-3.26-1.09c-1.03,0-1.99,0.29-2.84,0.8c-0.18-0.48-0.4-0.95-0.66-1.4c-1.21-2.13-3.11-3.62-5.34-4.18
			c-0.2-0.05-0.39-0.09-0.59-0.12c0.52-0.15,1.06-0.23,1.6-0.23C30.45,15.02,31.86,15.57,32.93,16.57z M21.8,21.82
			c0.58-2.78,3.1-4.52,5.62-3.89c1.61,0.4,2.97,1.47,3.85,3.01c0.34,0.59,0.58,1.23,0.74,1.88c-0.54,0.81-0.91,1.76-1.06,2.79
			c-0.53,0.23-1.04,0.49-1.54,0.77c-0.02-0.01-0.04-0.02-0.06-0.03c0.22-0.44,0.39-0.92,0.5-1.43c0.52-2.49-0.9-4.98-3.16-5.56
			c-1.94-0.49-3.88,0.85-4.32,2.99c-0.15,0.71,0.26,1.42,0.9,1.58c0.64,0.16,1.28-0.28,1.43-0.99c0.15-0.72,0.8-1.17,1.46-1.01
			c0.47,0.12,0.88,0.43,1.13,0.89c0.26,0.45,0.34,0.99,0.23,1.51c-0.08,0.37-0.21,0.7-0.4,0.99c-1.11-0.44-2.05-0.68-2.83-0.72
			c-0.16-0.01-0.32-0.01-0.5-0.01c-0.41,0-0.96,0.03-1.58,0.1C21.76,23.85,21.59,22.83,21.8,21.82z M58.2,24.71
			c-0.72-0.09-1.36-0.13-1.83-0.13c-0.17,0-0.34,0-0.5,0.01c-0.78,0.04-1.69,0.29-2.61,0.64c-0.16-0.27-0.28-0.57-0.35-0.91
			c-0.11-0.52-0.03-1.06,0.23-1.51c0.26-0.45,0.66-0.77,1.14-0.89c0.65-0.17,1.31,0.29,1.46,1.01c0.15,0.71,0.79,1.15,1.43,0.99
			c0.64-0.16,1.05-0.87,0.9-1.58c-0.44-2.14-2.38-3.47-4.32-2.99c-1.1,0.28-2.03,1.01-2.63,2.06c-0.6,1.05-0.79,2.29-0.54,3.5
			c0.1,0.47,0.25,0.91,0.44,1.32c-0.16,0.08-0.31,0.16-0.46,0.24c-0.45-0.26-0.92-0.5-1.39-0.72c-0.12-0.91-0.4-1.77-0.83-2.52
			c0.14-0.8,0.42-1.58,0.83-2.29c0.88-1.54,2.24-2.61,3.85-3.01c2.52-0.64,5.04,1.11,5.62,3.89C58.85,22.85,58.67,23.88,58.2,24.71z
			 M61.89,29.1c0.08,0.63-2.16,2.94-5.24,3.82c-0.08,0.02-0.17,0.03-0.28,0.03l-0.03,0c-0.46-0.01-0.91,0.26-1.15,0.7
			c-0.24,0.44-0.24,0.99-0.01,1.44c1.26,2.44,1.9,5.29,1.9,8.45c0,9.3-5.61,13.82-17.14,13.82c-11.69,0-17.14-4.39-17.14-13.82
			c0-3.18,0.63-6.03,1.87-8.47c0.21-0.42,0.22-0.93,0.02-1.36c-0.2-0.43-0.58-0.72-1.02-0.77c-0.06-0.01-0.11-0.02-0.14-0.03
			c-3.08-0.88-5.33-3.19-5.25-3.81c0.23-0.64,2.86-1.66,5.52-1.66c0.13,0,0.26,0,0.38,0.01c0.97,0.05,2.68,0.71,4.68,1.81
			c0.38,0.21,0.84,0.2,1.21-0.03c0.35-0.21,0.71-0.41,1.08-0.6c0.76,2.63,3,4.53,5.63,4.53c1.17,0,2.3-0.38,3.26-1.09
			c0.96,0.71,2.09,1.09,3.26,1.09c2.59,0,4.79-1.84,5.59-4.4c0.33,0.18,0.66,0.37,0.98,0.57c0.38,0.24,0.84,0.25,1.24,0.03
			c2.09-1.16,3.87-1.86,4.88-1.91c0.12-0.01,0.24-0.01,0.38-0.01C59.03,27.45,61.66,28.47,61.89,29.1z M39.22,23.86
			c0.46,0.49,1.19,0.49,1.66,0c0.66-0.7,1.53-1.08,2.44-1.08c1.94,0,3.52,1.74,3.52,3.88c0,2.14-1.58,3.88-3.52,3.88
			c-0.91,0-1.78-0.38-2.44-1.08c-0.23-0.24-0.53-0.37-0.83-0.37c-0.3,0-0.6,0.12-0.83,0.37c-0.66,0.7-1.53,1.08-2.44,1.08
			c-1.94,0-3.52-1.74-3.52-3.88c0-2.14,1.58-3.88,3.52-3.88C37.69,22.78,38.56,23.16,39.22,23.86z"/>
		<path class="st3" d="M58.64,21.82c-0.58-2.78-3.1-4.52-5.62-3.89c-1.61,0.4-2.97,1.47-3.85,3.01c-0.41,0.71-0.68,1.49-0.83,2.29
			c0.42,0.75,0.71,1.61,0.83,2.52c0.48,0.22,0.94,0.46,1.39,0.72c0.15-0.08,0.31-0.16,0.46-0.24c-0.2-0.41-0.35-0.85-0.44-1.32
			c-0.25-1.21-0.06-2.45,0.54-3.5c0.6-1.05,1.53-1.78,2.63-2.06c1.94-0.49,3.88,0.85,4.32,2.99c0.15,0.71-0.26,1.42-0.9,1.58
			c-0.64,0.16-1.28-0.28-1.43-0.99c-0.15-0.72-0.8-1.17-1.46-1.01c-0.47,0.12-0.88,0.43-1.14,0.89c-0.26,0.45-0.34,0.99-0.23,1.51
			c0.07,0.33,0.19,0.64,0.35,0.91c0.92-0.35,1.83-0.6,2.61-0.64c0.16-0.01,0.32-0.01,0.5-0.01c0.46,0,1.11,0.04,1.83,0.13
			C58.67,23.88,58.85,22.85,58.64,21.82z"/>
		<path class="st3" d="M23.8,24.58c0.17,0,0.34,0,0.5,0.01c0.77,0.04,1.72,0.28,2.83,0.72c0.18-0.29,0.32-0.62,0.4-0.99
			c0.11-0.52,0.03-1.06-0.23-1.51c-0.26-0.45-0.66-0.77-1.13-0.89c-0.65-0.17-1.31,0.29-1.46,1.01c-0.15,0.71-0.79,1.15-1.43,0.99
			c-0.64-0.16-1.05-0.87-0.9-1.58c0.44-2.14,2.38-3.47,4.32-2.99c2.26,0.57,3.68,3.06,3.16,5.56c-0.11,0.51-0.28,0.99-0.5,1.43
			c0.02,0.01,0.04,0.02,0.06,0.03c0.5-0.28,1.01-0.53,1.54-0.77c0.15-1.03,0.52-1.98,1.06-2.79c-0.16-0.66-0.41-1.29-0.74-1.88
			c-0.88-1.54-2.24-2.61-3.85-3.01c-2.52-0.64-5.04,1.11-5.62,3.89c-0.21,1.02-0.03,2.04,0.42,2.87
			C22.84,24.61,23.39,24.58,23.8,24.58z"/>
		<path class="st4" d="M56.37,27.45c-0.13,0-0.26,0-0.38,0.01c-1.01,0.05-2.79,0.75-4.88,1.91c-0.39,0.22-0.86,0.21-1.24-0.03
			c-0.32-0.2-0.65-0.39-0.98-0.57c-0.8,2.55-3,4.4-5.59,4.4c-1.17,0-2.3-0.38-3.26-1.09c-0.96,0.71-2.09,1.09-3.26,1.09
			c-2.63,0-4.87-1.91-5.63-4.53c-0.37,0.19-0.73,0.39-1.08,0.6c-0.38,0.23-0.83,0.24-1.21,0.03c-2-1.1-3.71-1.76-4.68-1.81
			c-0.12-0.01-0.24-0.01-0.38-0.01c-2.66,0-5.29,1.02-5.52,1.66c-0.08,0.62,2.17,2.92,5.25,3.81c0.04,0.01,0.09,0.02,0.14,0.03
			c0.44,0.05,0.82,0.34,1.02,0.77c0.2,0.43,0.19,0.94-0.02,1.36c-1.24,2.44-1.87,5.29-1.87,8.47c0,9.43,5.45,13.82,17.14,13.82
			c11.53,0,17.14-4.52,17.14-13.82c0-3.16-0.64-6.01-1.9-8.45c-0.23-0.45-0.23-1,0.01-1.44c0.24-0.44,0.68-0.71,1.15-0.7l0.03,0
			c0.11,0,0.2-0.01,0.28-0.03c3.08-0.88,5.33-3.19,5.24-3.82C61.66,28.47,59.03,27.45,56.37,27.45z M32.17,42.01
			c-1.06,0-1.92-0.94-1.92-2.11c0-1.17,0.86-2.11,1.92-2.11c1.06,0,1.92,0.95,1.92,2.11C34.09,41.07,33.23,42.01,32.17,42.01z
			 M46.17,48.64c-0.14,0.34-0.33,0.66-0.58,0.94c-0.23,0.26-0.49,0.47-0.78,0.64c-0.29,0.17-0.59,0.28-0.91,0.35
			c-0.2,0.04-0.4,0.06-0.61,0.06c-0.11,0-0.22-0.01-0.33-0.02c-0.31-0.03-0.62-0.1-0.91-0.22c-0.33-0.13-0.65-0.3-0.95-0.51
			c-0.32-0.23-0.6-0.49-0.83-0.77c-0.07-0.08-0.13-0.17-0.19-0.26c-0.06,0.09-0.12,0.17-0.19,0.25c-0.23,0.28-0.51,0.54-0.83,0.77
			c-0.3,0.21-0.61,0.38-0.94,0.51c-0.29,0.11-0.59,0.19-0.91,0.22c-0.11,0.01-0.22,0.02-0.33,0.02c-0.21,0-0.41-0.02-0.61-0.06
			c-0.32-0.07-0.63-0.18-0.91-0.34c-0.29-0.17-0.55-0.38-0.78-0.64c-0.26-0.3-0.45-0.6-0.59-0.92c-0.15-0.35-0.23-0.72-0.25-1.13
			c-0.02-0.46,0.3-0.85,0.71-0.87c0.41-0.02,0.77,0.33,0.79,0.78c0.01,0.2,0.04,0.36,0.11,0.52c0.06,0.15,0.17,0.3,0.31,0.47
			c0.11,0.13,0.25,0.24,0.4,0.33c0.15,0.09,0.31,0.15,0.48,0.18c0.17,0.03,0.34,0.04,0.53,0.02c0.19-0.02,0.36-0.06,0.53-0.13
			c0.22-0.09,0.44-0.21,0.64-0.35c0.21-0.15,0.38-0.31,0.52-0.48c0.15-0.18,0.26-0.38,0.34-0.58c0.07-0.2,0.14-0.43,0.18-0.67
			c0.04-0.23,0.05-0.46,0.04-0.66c0-0.06,0-0.13,0.01-0.19c-0.72-0.73-1.42-2.05-1.24-2.52c0.19-0.48,1.11-0.69,2.07-0.73
			c0.96,0,1.81,0.36,1.92,0.73c0.13,0.44-0.59,1.83-1.25,2.55c0.01,0.05,0.01,0.1,0.01,0.15c0,0.03,0,0.06,0,0.09
			c0,0.03,0,0.06,0,0.09c0,0.14,0.02,0.3,0.05,0.48c0.04,0.25,0.1,0.48,0.17,0.67c0.08,0.21,0.19,0.4,0.34,0.58
			c0.14,0.17,0.32,0.33,0.53,0.48c0.2,0.14,0.42,0.26,0.64,0.35c0.17,0.07,0.35,0.11,0.53,0.13c0.19,0.02,0.37,0.01,0.53-0.02
			c0.17-0.03,0.33-0.1,0.48-0.18c0.15-0.09,0.29-0.2,0.4-0.33c0.12-0.14,0.22-0.29,0.28-0.46c0.07-0.17,0.11-0.35,0.13-0.56
			c0.04-0.46,0.41-0.79,0.82-0.75c0.41,0.04,0.72,0.45,0.68,0.91C46.39,47.94,46.3,48.31,46.17,48.64z M48.21,42.01
			c-1.06,0-1.92-0.94-1.92-2.11c0-1.17,0.86-2.11,1.92-2.11c1.06,0,1.92,0.95,1.92,2.11C50.13,41.07,49.27,42.01,48.21,42.01z"/>
		<path class="st2" d="M45.74,46.65c-0.42-0.04-0.78,0.29-0.82,0.75c-0.02,0.2-0.06,0.39-0.13,0.56c-0.07,0.17-0.16,0.32-0.28,0.46
			c-0.11,0.13-0.25,0.24-0.4,0.33c-0.15,0.09-0.31,0.15-0.48,0.18c-0.17,0.03-0.35,0.04-0.53,0.02c-0.19-0.02-0.37-0.06-0.53-0.13
			c-0.22-0.09-0.44-0.2-0.64-0.35c-0.21-0.15-0.39-0.31-0.53-0.48c-0.15-0.18-0.26-0.38-0.34-0.58c-0.07-0.18-0.13-0.41-0.17-0.67
			c-0.03-0.18-0.05-0.34-0.05-0.48c0-0.03,0-0.06,0-0.09c0-0.03,0-0.06,0-0.09c0-0.05,0-0.1-0.01-0.15
			c0.66-0.73,1.38-2.11,1.25-2.55c-0.11-0.37-0.96-0.73-1.92-0.73c-0.96,0.04-1.88,0.25-2.07,0.73c-0.18,0.46,0.52,1.79,1.24,2.52
			c-0.01,0.06-0.01,0.12-0.01,0.19c0.01,0.19,0,0.43-0.04,0.66c-0.04,0.23-0.1,0.47-0.18,0.67c-0.07,0.2-0.19,0.39-0.34,0.58
			c-0.14,0.17-0.32,0.34-0.52,0.48c-0.2,0.14-0.42,0.26-0.64,0.35c-0.17,0.07-0.35,0.11-0.53,0.13c-0.19,0.02-0.37,0.01-0.53-0.02
			c-0.17-0.03-0.33-0.1-0.48-0.18c-0.15-0.09-0.28-0.2-0.4-0.33c-0.14-0.16-0.24-0.31-0.31-0.47c-0.06-0.15-0.1-0.32-0.11-0.52
			c-0.02-0.46-0.38-0.81-0.79-0.78c-0.42,0.02-0.74,0.42-0.71,0.87c0.02,0.41,0.1,0.78,0.25,1.13c0.14,0.32,0.33,0.62,0.59,0.92
			c0.23,0.26,0.49,0.47,0.78,0.64c0.28,0.16,0.59,0.28,0.91,0.34c0.2,0.04,0.4,0.06,0.61,0.06c0.11,0,0.22-0.01,0.33-0.02
			c0.31-0.03,0.62-0.1,0.91-0.22c0.33-0.13,0.65-0.3,0.94-0.51c0.32-0.23,0.6-0.48,0.83-0.77c0.07-0.08,0.13-0.17,0.19-0.25
			c0.06,0.09,0.12,0.17,0.19,0.26c0.23,0.28,0.51,0.54,0.83,0.77c0.3,0.21,0.62,0.38,0.95,0.51c0.29,0.11,0.59,0.19,0.91,0.22
			c0.11,0.01,0.22,0.02,0.33,0.02c0.21,0,0.41-0.02,0.61-0.06c0.32-0.06,0.62-0.18,0.91-0.35c0.29-0.17,0.56-0.39,0.78-0.64
			c0.24-0.28,0.44-0.59,0.58-0.94c0.13-0.33,0.22-0.69,0.25-1.08C46.46,47.1,46.16,46.7,45.74,46.65z"/>
		<path class="st2" d="M32.17,37.79c-1.06,0-1.92,0.95-1.92,2.11c0,1.17,0.86,2.11,1.92,2.11c1.06,0,1.92-0.94,1.92-2.11
			C34.09,38.74,33.23,37.79,32.17,37.79z"/>
		<path class="st2" d="M48.21,37.79c-1.06,0-1.92,0.95-1.92,2.11c0,1.17,0.86,2.11,1.92,2.11c1.06,0,1.92-0.94,1.92-2.11
			C50.13,38.74,49.27,37.79,48.21,37.79z"/>
		<path class="st1" d="M33.26,26.66c0,2.14,1.58,3.88,3.52,3.88c0.91,0,1.78-0.38,2.44-1.08c0.23-0.24,0.53-0.37,0.83-0.37
			c0.3,0,0.6,0.12,0.83,0.37c0.66,0.7,1.53,1.08,2.44,1.08c1.94,0,3.52-1.74,3.52-3.88c0-2.14-1.58-3.88-3.52-3.88
			c-0.91,0-1.78,0.38-2.44,1.08c-0.46,0.49-1.19,0.49-1.66,0c-0.66-0.7-1.53-1.08-2.44-1.08C34.84,22.78,33.26,24.52,33.26,26.66z"
			/>
	</g>
</g>
<g id="图层_2">
</g>
</svg>
