<?xml version="1.0" standalone="no"?><!DOCTYPE svg PUBLIC "-//W3C//DTD SVG 1.1//EN" "http://www.w3.org/Graphics/SVG/1.1/DTD/svg11.dtd"><svg t="1723792295924" class="icon" viewBox="0 0 1024 1024" version="1.1" xmlns="http://www.w3.org/2000/svg" p-id="7325" xmlns:xlink="http://www.w3.org/1999/xlink" width="200" height="200"><path d="M511.41922 0.01152c70.781655 0 137.339451 13.503553 199.801381 40.510658a519.214801 519.214801 0 0 1 162.618613 109.628368 520.942744 520.942744 0 0 1 109.628369 162.042633c27.007105 62.077944 40.510658 128.443745 40.510658 199.2254a497.391524 497.391524 0 0 1-40.510658 199.801382 519.214801 519.214801 0 0 1-109.628369 162.618613 519.214801 519.214801 0 0 1-162.618613 109.628369A497.391524 497.391524 0 0 1 511.355222 1023.977601a493.359657 493.359657 0 0 1-199.225401-40.510658 520.942744 520.942744 0 0 1-162.042632-109.628369 519.214801 519.214801 0 0 1-109.628369-162.618613A497.391524 497.391524 0 0 1 0.01216 511.354581c0-70.781655 13.503553-137.147457 40.510658-199.2254a520.942744 520.942744 0 0 1 109.628369-162.042633A520.942744 520.942744 0 0 1 312.193819 40.522178 493.359657 493.359657 0 0 1 511.41922 0.01152z m254.583567 581.100751c22.847243 0 43.390563-5.951803 61.629958-17.727413 18.239396-11.839608 27.391093-29.503023 27.391093-53.118241 0-22.847243-9.151697-39.742684-27.391093-50.814316a116.860129 116.860129 0 0 0-61.629958-16.511453H261.4435a122.87593 122.87593 0 0 0-62.78192 16.511453c-19.071368 11.071633-28.543055 27.967074-28.543055 50.814316 0 23.615218 9.471686 41.278633 28.543055 53.118241 19.00737 11.77561 39.934677 17.663415 62.717922 17.663415h504.623285z" fill="#d36051" p-id="7326"></path></svg>