<?xml version="1.0" standalone="no"?><!DOCTYPE svg PUBLIC "-//W3C//DTD SVG 1.1//EN" "http://www.w3.org/Graphics/SVG/1.1/DTD/svg11.dtd"><svg t="1724333920137" class="icon" viewBox="0 0 1024 1024" version="1.1" xmlns="http://www.w3.org/2000/svg" p-id="4283" xmlns:xlink="http://www.w3.org/1999/xlink" width="200" height="200"><path d="M512 138.24c206.4384 0 373.76 167.3216 373.76 373.76S718.4384 885.76 512 885.76a372.4288 372.4288 0 0 1-251.06432-96.8704 25.6 25.6 0 1 1 34.4064-37.92896A321.2288 321.2288 0 0 0 512 834.56c178.13504 0 322.56-144.42496 322.56-322.56S690.13504 189.44 512 189.44 189.44 333.86496 189.44 512c0 57.38496 14.97088 112.51712 43.02848 161.0752a25.6 25.6 0 1 1-44.3392 25.6A372.1216 372.1216 0 0 1 138.24 512C138.24 305.5616 305.5616 138.24 512 138.24z m185.22112 278.56896a25.6 25.6 0 0 1 0.69632 36.18816l-206.2336 214.50752-0.94208 0.96256-0.59392 0.55296a46.08 46.08 0 0 1-65.1264-1.78176l-130.29376-137.6256a25.6 25.6 0 0 1 37.1712-35.2256l126.60736 133.7344 202.50624-210.61632a25.6 25.6 0 0 1 36.20864-0.69632z" fill="#F94073" p-id="4284"></path></svg>