<?xml version="1.0" standalone="no"?><!DOCTYPE svg PUBLIC "-//W3C//DTD SVG 1.1//EN" "http://www.w3.org/Graphics/SVG/1.1/DTD/svg11.dtd"><svg t="1722996282101" class="icon" viewBox="0 0 1024 1024" version="1.1" xmlns="http://www.w3.org/2000/svg" p-id="4549" xmlns:xlink="http://www.w3.org/1999/xlink" width="200" height="200"><path d="M933.632 345.088l-127.36 127.36c-35.136 35.2-92.16 35.2-127.36 0l-127.36-127.36c-35.136-35.2-35.136-92.16 0-127.36l127.36-127.36c35.2-35.136 92.16-35.136 127.36 0l127.36 127.36C968.768 252.928 968.768 309.888 933.632 345.088zM616.896 557.888l201.088 0c55.552 0 100.544 44.992 100.544 100.544l0 201.088c0 55.552-44.992 100.544-100.544 100.544L616.896 960.064c-55.552 0-100.544-44.992-100.544-100.544l0-201.088C516.416 602.88 561.408 557.888 616.896 557.888zM365.568 960 164.544 960C108.992 960 64 915.008 64 859.456l0-201.088C64 602.88 108.992 557.888 164.544 557.888l201.088 0c55.488 0 100.544 44.992 100.544 100.544l0 201.088C466.112 915.008 421.12 960 365.568 960zM365.568 507.584 164.544 507.584C108.992 507.584 64 462.592 64 407.104L64 206.016c0-55.552 44.992-100.544 100.544-100.544l201.088 0c55.488 0 100.544 44.992 100.544 100.544l0 201.088C466.112 462.592 421.12 507.584 365.568 507.584z" p-id="4550" fill="#d4d4d8"></path></svg>