<?xml version="1.0" standalone="no"?><!DOCTYPE svg PUBLIC "-//W3C//DTD SVG 1.1//EN" "http://www.w3.org/Graphics/SVG/1.1/DTD/svg11.dtd"><svg t="1721982610590" class="icon" viewBox="0 0 1024 1024" version="1.1" xmlns="http://www.w3.org/2000/svg" p-id="6251" xmlns:xlink="http://www.w3.org/1999/xlink" width="200" height="200"><path d="M512 3.068931C230.681319 3.068931 1.534466 232.215784 1.534466 513.534466S230.681319 1024 512 1024s510.465534-229.146853 510.465534-510.465534S793.318681 3.068931 512 3.068931z m433.742258 510.465535c0 239.376623-194.877123 433.742258-433.742258 433.742257s-433.742258-194.877123-433.742258-433.742257c0-239.376623 194.877123-433.742258 433.742258-433.742258s433.742258 194.365634 433.742258 433.742258z" fill="#0782d9" p-id="6252"></path><path d="M512 280.807193c-128.383616 0-232.727273 104.343656-232.727273 232.727273s104.343656 232.727273 232.727273 232.727272 232.727273-104.343656 232.727273-232.727272c-0.511489-128.383616-104.855145-232.727273-232.727273-232.727273z m156.515485 232.727273c0 86.441558-70.585415 157.026973-157.026974 157.026973s-157.026973-70.585415-157.026973-157.026973S425.046953 356.507493 511.488511 356.507493s157.026973 70.585415 157.026974 157.026973z" fill="#0782d9" p-id="6253"></path></svg>