<?xml version="1.0" standalone="no"?><!DOCTYPE svg PUBLIC "-//W3C//DTD SVG 1.1//EN" "http://www.w3.org/Graphics/SVG/1.1/DTD/svg11.dtd"><svg t="1731801943678" class="icon" viewBox="0 0 1024 1024" version="1.1" xmlns="http://www.w3.org/2000/svg" p-id="18707" xmlns:xlink="http://www.w3.org/1999/xlink" width="200" height="200"><path d="M382.1568 509.7472V464.896c0-16.9984-13.7216-30.72-30.72-30.72s-30.72 13.7216-30.72 30.72v44.8512c0 16.9984 13.7216 30.72 30.72 30.72s30.72-13.7216 30.72-30.72zM557.2608 434.3808c-16.9984 0-30.72 13.7216-30.72 30.72v44.8512c0 16.9984 13.7216 30.72 30.72 30.72s30.72-13.7216 30.72-30.72v-44.8512c0-16.9984-13.9264-30.72-30.72-30.72zM570.7776 611.7376c-127.1808-31.5392-213.4016 41.5744-216.8832 44.6464a30.78144 30.78144 0 0 0 20.0704 54.0672c7.168 0 14.336-2.4576 20.0704-7.5776 0.6144-0.6144 65.536-55.296 161.9968-31.5392 16.5888 4.096 33.1776-5.9392 37.2736-22.3232s-5.9392-33.1776-22.528-37.2736z" p-id="18708" fill="#e86d5e"></path><path d="M919.552 463.2576l-128-88.064 95.6416-90.3168-42.1888-44.6464-93.3888 88.064c-61.6448-99.7376-171.6224-166.2976-297.5744-166.2976C261.12 161.9968 104.448 318.6688 104.448 512s156.672 350.0032 350.0032 350.0032S804.4544 705.3312 804.4544 512c0-19.456-2.048-38.2976-4.9152-56.7296l85.4016 58.7776 34.6112-50.7904zM454.4512 223.4368c94.4128 0 178.176 45.8752 230.8096 116.1216H223.4368c52.6336-70.2464 136.3968-116.1216 231.0144-116.1216z m0 577.1264C295.3216 800.5632 165.888 671.1296 165.888 512c0-39.3216 7.9872-76.8 22.1184-110.7968h532.48c14.336 34.2016 22.1184 71.68 22.1184 110.7968 0.2048 159.1296-129.2288 288.5632-288.1536 288.5632z" p-id="18709" fill="#e86d5e"></path></svg>