<?xml version="1.0" standalone="no"?><!DOCTYPE svg PUBLIC "-//W3C//DTD SVG 1.1//EN"
        "http://www.w3.org/Graphics/SVG/1.1/DTD/svg11.dtd">
<svg t="1729900605776" class="icon" viewBox="0 0 1024 1024" version="1.1" xmlns="http://www.w3.org/2000/svg"
     p-id="14931" xmlns:xlink="http://www.w3.org/1999/xlink" width="200" height="200">
    <path d="M746.8544 662.0672s79.9744-505.088-396.5952-505.088c164.3008 178.7392 197.12 327.68 72.5504 517.376 95.7952-75.3152 238.2336-77.9264 324.0448-12.288z"
          fill="#bae6fd" p-id="14932"></path>
    <path d="M933.7344 606.9248a30.72 30.72 0 0 0-30.0544-1.0752c-32.1024 16.4864-75.008 30.72-124.2624 43.008 6.2976-60.2624 16.0256-256-99.6352-391.168-71.1168-83.3536-175.616-127.2832-310.528-131.072l-2.816-21.6064a30.72 30.72 0 0 0-60.928 8.0384L383.5904 706.56c-151.8592 12.8-274.5856 16.0768-277.2992 16.1792a30.72 30.72 0 0 0-25.6 46.08C148.48 884.3264 278.4768 943.8208 460.8 943.8208a998.4 998.4 0 0 0 125.0816-8.3456 1569.3312 1569.3312 0 0 0 343.3984-87.04 30.72 30.72 0 0 0 19.4048-28.5696v-186.7264a30.72 30.72 0 0 0-14.9504-26.2144z m-488.9088 93.952l-0.5632-4.1984c72.5504-55.6544 175.7696-66.56 251.6992-29.8496-79.5648 14.848-167.7312 25.9072-251.136 34.048z m188.0576-403.5584c84.1728 98.304 90.624 240.64 87.552 313.2416a291.84 291.84 0 0 0-122.3168-25.9072 326.1952 326.1952 0 0 0-100.3008 15.872c28.3648-66.816 37.3248-130.7648 27.392-193.7408-11.008-69.6832-44.6464-139.0592-104.5504-215.04 90.9824 11.8272 162.2016 47.1552 212.224 105.5744z m-201.5744 300.9024l-46.08-351.5392c91.904 123.7504 105.7792 230.4512 46.08 351.5392z m455.68 200.4992c-97.9968 35.072-540.2112 178.6368-720.7424-16.7424 146.3296-6.1952 527.36-28.8768 720.7424-101.888z"
          fill="#0284c7" p-id="14933"></path>
</svg>
