<?xml version="1.0" standalone="no"?><!DOCTYPE svg PUBLIC "-//W3C//DTD SVG 1.1//EN" "http://www.w3.org/Graphics/SVG/1.1/DTD/svg11.dtd"><svg t="1730112520544" class="icon" viewBox="0 0 1024 1024" version="1.1" xmlns="http://www.w3.org/2000/svg" p-id="10353" xmlns:xlink="http://www.w3.org/1999/xlink" width="200" height="200"><path d="M908.98944 917.90848h-264.59136v-0.5376c-28.48256 34.88256-76.97408 57.98912-132.29568 57.98912s-103.9104-23.11168-132.29568-57.98912v0.5376H115.21536c-21.0688 0-41.27744-9.06752-56.192-25.27232C44.2112 876.45184 35.84 854.51776 35.84 831.63136V170.65472C35.84 123.0336 71.34208 84.48 115.21536 84.48h264.59136c55.3216 0 103.9104 30.77632 132.29568 77.31712 29.34272-48.27136 79.08864-77.31712 132.29568-77.31712h264.59136c43.776 0 79.37536 38.66112 79.37536 86.17472v660.97664c0 47.73376-35.5072 86.27712-79.37536 86.27712z m26.45504-747.25376c0-7.66976-2.7904-14.8992-7.69536-20.3008-5.01248-5.4016-11.63776-8.4224-18.66752-8.4224h-264.59136c-58.39872 0-105.83552 51.5072-105.83552 114.8928v316.28288c0 15.87712-11.83744 28.7232-26.45504 28.7232-14.62272 0-26.46016-12.85632-26.46016-28.7232V256.93184c0-63.49312-47.43168-114.8928-105.83552-114.8928H115.31264c-14.62272 0-26.45504 12.8512-26.45504 28.7232V831.744c0 15.87712 11.83232 28.83584 26.45504 28.83584h259.2c21.4528 0 32.9984 8.09472 35.40992 11.86816 15.9744 26.67008 55.80288 45.568 102.3744 45.568s86.30272-18.89792 102.3744-45.568c2.304-3.77344 13.952-12.20096 36.27008-11.86816 40.99072 0.20992 99.584 0 99.584 0h158.75584c7.01952 0 13.76256-3.03104 18.66752-8.42752 5.01248-5.39648 7.70048-12.72832 7.70048-20.3008V170.65472h-0.2048z" fill="#1afa29" p-id="10354"></path></svg>