<?xml version="1.0" encoding="utf-8"?>
<!-- Generator: Adobe Illustrator 28.3.0, SVG Export Plug-In . SVG Version: 6.00 Build 0)  -->
<svg version="1.1" id="图层_1" xmlns="http://www.w3.org/2000/svg" xmlns:xlink="http://www.w3.org/1999/xlink" x="0px" y="0px"
	 viewBox="0 0 80 80" style="enable-background:new 0 0 80 80;" xml:space="preserve">
<style type="text/css">
	.st0{fill:#FFCC4A;}
	.st1{fill:#FE4242;}
	.st2{fill:#5D342B;}
</style>
<g>
	
		<ellipse transform="matrix(0.2669 -0.9637 0.9637 0.2669 -8.7923 68.4533)" class="st0" cx="40.6" cy="40.01" rx="38.4" ry="38.4"/>
</g>
<g>
	<path class="st1" d="M54.51,70.4L54.51,70.4c-3.67,1.66-7.99,0.04-9.65-3.63l-1.87-4.13l13.28-6.02l1.87,4.13
		C59.8,64.42,58.17,68.74,54.51,70.4z"/>
</g>
<g>
	<path class="st2" d="M31.86,31.49c0,2.74-2.22,4.97-4.97,4.97c-2.74,0-4.97-2.22-4.97-4.97c0-2.74,2.22-4.97,4.97-4.97
		C29.63,26.52,31.86,28.74,31.86,31.49z"/>
</g>
<g>
	<path class="st2" d="M59.8,31.49c0,2.74-2.22,4.97-4.97,4.97c-2.74,0-4.97-2.22-4.97-4.97c0-2.74,2.22-4.97,4.97-4.97
		C57.57,26.52,59.8,28.74,59.8,31.49z"/>
</g>
<g>
	<path class="st2" d="M40.6,63.36c-9.75,0-18.61-7.43-21.23-14.32c-0.42-1.09,0.13-2.32,1.23-2.73c1.1-0.41,2.32,0.13,2.73,1.23
		c2.13,5.6,9.58,11.59,17.27,11.59c7.7,0,15.42-5.12,17.22-11.42c0.32-1.13,1.49-1.78,2.62-1.46c1.13,0.32,1.78,1.49,1.46,2.62
		C59.57,56.99,50.22,63.36,40.6,63.36z"/>
</g>
</svg>
