<?xml version="1.0" encoding="utf-8"?>
<!-- Generator: Adobe Illustrator 28.3.0, SVG Export Plug-In . SVG Version: 6.00 Build 0)  -->
<svg version="1.1" id="图层_1" xmlns="http://www.w3.org/2000/svg" xmlns:xlink="http://www.w3.org/1999/xlink" x="0px" y="0px"
	 viewBox="0 0 80 80" style="enable-background:new 0 0 80 80;" xml:space="preserve">
<style type="text/css">
	.st0{fill:#FFCC4A;}
	.st1{fill:#FFFFFF;}
	.st2{fill:#FE4242;}
</style>
<g>
	
		<ellipse transform="matrix(0.5849 -0.8111 0.8111 0.5849 -16.2423 48.6332)" class="st0" cx="39.39" cy="40.18" rx="38.2" ry="38.2"/>
</g>
<g>
	<path class="st1" d="M61.06,49c-0.76,2.28-1.78,4.33-3.05,6.15c-4.19,6.13-10.97,9.62-18.63,9.62c-7.65,0-14.43-3.49-18.63-9.62
		c-1.25-1.82-2.28-3.88-3.03-6.15H61.06z"/>
</g>
<g>
	<path class="st2" d="M38.23,29.92c0-0.01,0-0.03,0-0.04c0-0.16,0-0.31-0.02-0.45c-0.26-4.09-3.65-7.32-7.8-7.32
		c-2.14,0-4.08,0.86-5.5,2.26h0h0c-1.41-1.4-3.35-2.26-5.5-2.26c-4.15,0-7.54,3.24-7.8,7.32c-0.02,0.16-0.03,0.33-0.03,0.5
		c0,1.96,0.72,3.74,1.91,5.12c3.68,5.09,11.41,7.55,11.41,7.55s7.72-2.46,11.4-7.54C37.5,33.66,38.23,31.88,38.23,29.92z"/>
</g>
<g>
	<path class="st2" d="M67.2,30.07c0-0.02,0-0.03,0-0.04c0-0.16,0-0.31-0.02-0.45c-0.26-4.09-3.65-7.32-7.8-7.32
		c-2.14,0-4.08,0.86-5.5,2.26h0h0c-1.41-1.4-3.35-2.26-5.5-2.26c-4.15,0-7.54,3.24-7.8,7.32c-0.02,0.16-0.03,0.33-0.03,0.5
		c0,1.96,0.72,3.74,1.91,5.12c3.68,5.09,11.41,7.55,11.41,7.55s7.72-2.46,11.4-7.54C66.47,33.82,67.2,32.03,67.2,30.07z"/>
</g>
</svg>
