<?xml version="1.0" encoding="utf-8"?>
<!-- Generator: Adobe Illustrator 28.3.0, SVG Export Plug-In . SVG Version: 6.00 Build 0)  -->
<svg version="1.1" id="图层_1" xmlns="http://www.w3.org/2000/svg" xmlns:xlink="http://www.w3.org/1999/xlink" x="0px" y="0px"
	 viewBox="0 0 80 80" style="enable-background:new 0 0 80 80;" xml:space="preserve">
<style type="text/css">
	.st0{fill:#FFCC4A;}
	.st1{fill:#5D342B;}
</style>
<g>
	
		<ellipse transform="matrix(0.7071 -0.7071 0.7071 0.7071 -16.8131 40.0118)" class="st0" cx="39.89" cy="40.3" rx="38.7" ry="38.7"/>
</g>
<g>
	<path class="st1" d="M31.08,31.72c0,2.76-2.24,5-5,5c-2.76,0-5-2.24-5-5c0-2.76,2.24-5,5-5C28.84,26.71,31.08,28.95,31.08,31.72z"
		/>
</g>
<g>
	<path class="st1" d="M59.24,31.72c0,2.76-2.24,5-5,5c-2.76,0-5-2.24-5-5c0-2.76,2.24-5,5-5C57,26.71,59.24,28.95,59.24,31.72z"/>
</g>
<g>
	<g>
		<path class="st1" d="M55.85,63.11c-0.24,0-0.49-0.06-0.72-0.17L23.22,46.93c-0.79-0.4-1.11-1.36-0.71-2.15
			c0.4-0.79,1.36-1.11,2.15-0.71l31.92,16.02c0.79,0.4,1.11,1.36,0.71,2.15C57,62.79,56.44,63.11,55.85,63.11z"/>
	</g>
	<g>
		<path class="st1" d="M23.93,63.11c-0.59,0-1.15-0.32-1.43-0.88c-0.4-0.79-0.08-1.75,0.71-2.15l31.92-16.02
			c0.79-0.4,1.75-0.08,2.15,0.71c0.4,0.79,0.08,1.75-0.71,2.15L24.65,62.94C24.42,63.06,24.18,63.11,23.93,63.11z"/>
	</g>
</g>
</svg>
