<?xml version="1.0" encoding="utf-8"?>
<!-- Generator: Adobe Illustrator 28.3.0, SVG Export Plug-In . SVG Version: 6.00 Build 0)  -->
<svg version="1.1" id="图层_1" xmlns="http://www.w3.org/2000/svg" xmlns:xlink="http://www.w3.org/1999/xlink" x="0px" y="0px"
	 viewBox="0 0 80 80" style="enable-background:new 0 0 80 80;" xml:space="preserve">
<style type="text/css">
	.st0{fill:#FFCC4A;}
	.st1{fill:#5D342B;}
</style>
<g>
	<ellipse transform="matrix(0.2669 -0.9637 0.9637 0.2669 -8.677 67.6048)" class="st0" cx="40.1" cy="39.51" rx="37.9" ry="37.9"/>
</g>
<g>
	<path class="st1" d="M31.47,31.1c0,2.71-2.19,4.9-4.9,4.9c-2.71,0-4.9-2.19-4.9-4.9c0-2.71,2.19-4.9,4.9-4.9
		C29.28,26.2,31.47,28.39,31.47,31.1z"/>
</g>
<g>
	<path class="st1" d="M59.05,31.1c0,2.71-2.19,4.9-4.9,4.9c-2.71,0-4.9-2.19-4.9-4.9c0-2.71,2.19-4.9,4.9-4.9
		C56.85,26.2,59.05,28.39,59.05,31.1z"/>
</g>
<g>
	<path class="st1" d="M59.1,64.65c-0.88,0-1.69-0.56-1.98-1.43c-2.54-7.65-9.06-12.4-17.02-12.4c-7.96,0-14.48,4.75-17.02,12.4
		c-0.36,1.1-1.55,1.69-2.64,1.33c-1.1-0.36-1.69-1.55-1.33-2.64c3.13-9.42,11.17-15.27,20.99-15.27s17.86,5.85,20.99,15.27
		c0.36,1.1-0.23,2.28-1.33,2.64C59.54,64.61,59.32,64.65,59.1,64.65z"/>
</g>
</svg>
