<?xml version="1.0" encoding="utf-8"?>
<!-- Generator: Adobe Illustrator 28.3.0, SVG Export Plug-In . SVG Version: 6.00 Build 0)  -->
<svg version="1.1" id="图层_1" xmlns="http://www.w3.org/2000/svg" xmlns:xlink="http://www.w3.org/1999/xlink" x="0px" y="0px"
	 viewBox="0 0 80 80" style="enable-background:new 0 0 80 80;" xml:space="preserve">
<style type="text/css">
	.st0{fill:#FFCC4A;}
	.st1{fill:#5D342B;}
	.st2{fill:#FFFFFF;}
</style>
<g>
	
		<ellipse transform="matrix(0.2049 -0.9788 0.9788 0.2049 -6.7506 70.2917)" class="st0" cx="39.89" cy="39.3" rx="38.7" ry="38.7"/>
</g>
<g>
	<path class="st1" d="M59.29,64.97c-0.9,0-1.73-0.57-2.03-1.46c-2.59-7.81-9.25-12.66-17.37-12.66c-8.12,0-14.78,4.85-17.37,12.66
		c-0.37,1.12-1.58,1.73-2.7,1.35c-1.12-0.37-1.73-1.58-1.35-2.7c3.19-9.61,11.4-15.59,21.43-15.59c10.02,0,18.24,5.97,21.43,15.59
		c0.37,1.12-0.23,2.33-1.35,2.7C59.74,64.94,59.52,64.97,59.29,64.97z"/>
</g>
<g>
	<g>
		<circle class="st2" cx="24.48" cy="29.2" r="9.06"/>
	</g>
	<g>
		<circle class="st1" cx="26.7" cy="26.08" r="5.32"/>
	</g>
</g>
<g>
	<g>
		<circle class="st2" cx="55.31" cy="29.82" r="9.06"/>
	</g>
	<g>
		<circle class="st1" cx="57.01" cy="26.71" r="5.32"/>
	</g>
</g>
</svg>
