<?xml version="1.0" encoding="utf-8"?>
<!-- Generator: Adobe Illustrator 28.3.0, SVG Export Plug-In . SVG Version: 6.00 Build 0)  -->
<svg version="1.1" id="图层_1" xmlns="http://www.w3.org/2000/svg" xmlns:xlink="http://www.w3.org/1999/xlink" x="0px" y="0px"
	 viewBox="0 0 80 80" style="enable-background:new 0 0 80 80;" xml:space="preserve">
<style type="text/css">
	.st0{fill:#FFCC4A;}
	.st1{fill:#5D342B;}
</style>
<g>
	
		<ellipse transform="matrix(0.2339 -0.9723 0.9723 0.2339 -7.7539 69.7613)" class="st0" cx="40.39" cy="39.8" rx="38.2" ry="38.2"/>
</g>
<g>
	<path class="st1" d="M59.9,58.7c-2.65,0-4.02-1.69-4.93-2.8c-0.81-0.99-1.08-1.25-1.66-1.25c-0.58,0-0.85,0.25-1.66,1.25
		c-0.91,1.11-2.28,2.8-4.93,2.8c-2.65,0-4.02-1.69-4.92-2.8c-0.81-0.99-1.07-1.24-1.65-1.24c-0.58,0-0.85,0.25-1.65,1.24
		c-0.91,1.12-2.28,2.8-4.92,2.8c-2.65,0-4.02-1.69-4.92-2.8c-0.81-0.99-1.07-1.24-1.65-1.24c-0.58,0-0.84,0.25-1.65,1.24
		c-0.91,1.12-2.27,2.8-4.92,2.8c-1.16,0-2.11-0.94-2.11-2.11c0-1.16,0.94-2.11,2.11-2.11c0.57,0,0.84-0.25,1.65-1.24
		c0.91-1.12,2.27-2.8,4.92-2.8c2.65,0,4.02,1.69,4.92,2.8c0.81,0.99,1.07,1.24,1.65,1.24s0.84-0.25,1.65-1.24
		c0.91-1.12,2.28-2.8,4.92-2.8c2.65,0,4.02,1.69,4.92,2.8c0.81,0.99,1.07,1.24,1.65,1.24c0.58,0,0.85-0.25,1.66-1.25
		c0.91-1.11,2.28-2.8,4.93-2.8c2.65,0,4.02,1.68,4.93,2.8c0.81,0.99,1.08,1.25,1.66,1.25c1.16,0,2.11,0.94,2.11,2.11
		C62.01,57.76,61.06,58.7,59.9,58.7z"/>
</g>
<g>
	<path class="st1" d="M60.35,43.13c-0.24,0-0.48-0.06-0.71-0.17l-12.4-6.28c-0.53-0.27-0.87-0.81-0.87-1.41
		c0-0.6,0.34-1.14,0.87-1.41l12.4-6.28c0.78-0.39,1.73-0.08,2.12,0.7c0.39,0.78,0.08,1.73-0.7,2.12l-9.62,4.87l9.62,4.87
		c0.78,0.39,1.09,1.35,0.7,2.12C61.48,42.81,60.93,43.13,60.35,43.13z"/>
</g>
<g>
	<path class="st1" d="M21.01,43.13c-0.58,0-1.13-0.32-1.41-0.87c-0.39-0.78-0.08-1.73,0.7-2.12l9.62-4.87L20.3,30.4
		c-0.78-0.39-1.09-1.35-0.7-2.12c0.39-0.78,1.34-1.09,2.12-0.7l12.4,6.28c0.53,0.27,0.87,0.81,0.87,1.41c0,0.6-0.34,1.14-0.87,1.41
		l-12.4,6.28C21.5,43.08,21.25,43.13,21.01,43.13z"/>
</g>
</svg>
