<?xml version="1.0" encoding="utf-8"?>
<!-- Generator: Adobe Illustrator 28.3.0, SVG Export Plug-In . SVG Version: 6.00 Build 0)  -->
<svg version="1.1" id="图层_1" xmlns="http://www.w3.org/2000/svg" xmlns:xlink="http://www.w3.org/1999/xlink" x="0px" y="0px"
	 viewBox="0 0 80 80" style="enable-background:new 0 0 80 80;" xml:space="preserve">
<style type="text/css">
	.st0{fill:#FFCC4A;}
	.st1{fill:#5D342B;}
	.st2{fill:#8C544C;}
</style>
<g>
	
		<ellipse transform="matrix(0.1602 -0.9871 0.9871 0.1602 -5.3217 72.7562)" class="st0" cx="40.1" cy="39.51" rx="38.9" ry="38.9"/>
</g>
<g>
	<path class="st1" d="M40.09,67.33c-8.29,0-15.63-4.24-19.63-11.33c-0.58-1.03-0.22-2.34,0.82-2.92c1.03-0.58,2.34-0.22,2.92,0.82
		c3.27,5.81,9.06,9.14,15.89,9.14c6.83,0,12.62-3.34,15.89-9.15c0.58-1.03,1.89-1.4,2.92-0.82c1.03,0.58,1.4,1.89,0.82,2.92
		C55.73,63.09,48.39,67.33,40.09,67.33z"/>
</g>
<g>
	<g>
		<path class="st2" d="M24.98,45.37h-3.6c-5.48,0-9.93-4.44-9.93-9.93v-3.2c0-3.51,2.85-6.35,6.35-6.35h11.67
			c3.51,0,6.35,2.85,6.35,6.35v2.28C35.83,40.49,30.94,45.37,24.98,45.37z"/>
		<path class="st1" d="M25.74,47.19h-5.06c-6.09,0-11.05-4.95-11.05-11.05v-4.35c0-4.26,3.47-7.72,7.73-7.72h12.56
			c4.26,0,7.73,3.47,7.73,7.72C37.64,39.23,32.86,47.19,25.74,47.19z M17.36,27.7c-2.25,0-4.09,1.83-4.09,4.09v4.35
			c0,4.08,3.32,7.41,7.41,7.41h5.06c4.87,0,8.27-6.2,8.27-11.76c0-2.25-1.83-4.09-4.09-4.09H17.36z"/>
	</g>
	<g>
		<path class="st2" d="M57.94,45.37h1.57c5.1,0,9.23-4.13,9.23-9.23v-4.35c0-3.26-2.64-5.91-5.91-5.91H50.27
			c-3.26,0-5.91,2.64-5.91,5.91v0C44.37,39.26,50.48,45.37,57.94,45.37z"/>
		<path class="st1" d="M59.52,47.19h-5.06c-7.12,0-11.9-7.96-11.9-15.4c0-4.26,3.47-7.72,7.72-7.72h12.56
			c4.26,0,7.72,3.47,7.72,7.72v4.35C70.56,42.23,65.61,47.19,59.52,47.19z M50.27,27.7c-2.25,0-4.09,1.83-4.09,4.09
			c0,5.56,3.39,11.76,8.27,11.76h5.06c4.09,0,7.41-3.32,7.41-7.41v-4.35c0-2.25-1.83-4.09-4.09-4.09H50.27z"/>
	</g>
	<g>
		<path class="st1" d="M44.39,33.09c-0.92,0-1.71-0.7-1.81-1.63c-0.07-0.52-0.44-2.28-2.49-2.28c-2.04,0-2.42,1.76-2.49,2.29
			c-0.12,0.99-1.02,1.71-2.01,1.59c-0.99-0.11-1.71-0.99-1.6-1.98c0.2-1.92,1.73-5.54,6.11-5.54c4.38,0,5.91,3.62,6.11,5.54
			c0.1,1-0.62,1.89-1.62,2C44.52,33.09,44.45,33.09,44.39,33.09z"/>
	</g>
	<g>
		<path class="st1" d="M72.38,30.19h-4.73c-1,0-1.82-0.81-1.82-1.82c0-1,0.81-1.82,1.82-1.82h4.73c1,0,1.82,0.81,1.82,1.82
			C74.2,29.38,73.39,30.19,72.38,30.19z"/>
	</g>
	<g>
		<path class="st1" d="M12.54,30.19H7.81c-1,0-1.82-0.81-1.82-1.82c0-1,0.81-1.82,1.82-1.82h4.73c1,0,1.82,0.81,1.82,1.82
			C14.36,29.38,13.55,30.19,12.54,30.19z"/>
	</g>
</g>
</svg>
