<?xml version="1.0" encoding="utf-8"?>
<!-- Generator: Adobe Illustrator 28.3.0, SVG Export Plug-In . SVG Version: 6.00 Build 0)  -->
<svg version="1.1" id="图层_1" xmlns="http://www.w3.org/2000/svg" xmlns:xlink="http://www.w3.org/1999/xlink" x="0px" y="0px"
	 viewBox="0 0 80 80" style="enable-background:new 0 0 80 80;" xml:space="preserve">
<style type="text/css">
	.st0{fill:#FFCC4A;}
	.st1{fill:#FFFFFF;}
	.st2{fill:#5D342B;}
	.st3{fill:#FE4242;}
</style>
<g>
	
		<ellipse transform="matrix(0.7071 -0.7071 0.7071 0.7071 -16.3131 40.2189)" class="st0" cx="40.39" cy="39.8" rx="38.2" ry="38.2"/>
</g>
<g>
	<g>
		<circle class="st1" cx="24.97" cy="29.85" r="8.89"/>
	</g>
	<g>
		<circle class="st2" cx="28.38" cy="29.85" r="5.22"/>
	</g>
</g>
<g>
	<g>
		
			<ellipse transform="matrix(0.2288 -0.9735 0.9735 0.2288 13.3847 77.831)" class="st1" cx="55.81" cy="30.47" rx="8.89" ry="8.89"/>
	</g>
	<g>
		<path class="st2" d="M57.63,30.47c0,2.88-2.34,5.22-5.22,5.22s-5.22-2.34-5.22-5.22c0-2.88,2.34-5.22,5.22-5.22
			S57.63,27.59,57.63,30.47z"/>
	</g>
</g>
<g>
	<g>
		<path class="st2" d="M58.78,49.15c0,5.79-4.34,10.77-10.6,13.04c0,0,0,0,0,0.02c-2.37,0.88-4.99,1.36-7.79,1.36
			s-5.42-0.48-7.79-1.36c0-0.02,0-0.02,0-0.02c-6.26-2.27-10.6-7.25-10.6-13.04H58.78z"/>
	</g>
	<g>
		<path class="st3" d="M40.64,71.3h-0.49c-3.88,0-7.03-3.15-7.03-7.03v-8.44h14.55v8.44C47.67,68.15,44.52,71.3,40.64,71.3z"/>
	</g>
</g>
</svg>
