<?xml version="1.0" encoding="utf-8"?>
<!-- Generator: Adobe Illustrator 28.3.0, SVG Export Plug-In . SVG Version: 6.00 Build 0)  -->
<svg version="1.1" id="图层_1" xmlns="http://www.w3.org/2000/svg" xmlns:xlink="http://www.w3.org/1999/xlink" x="0px" y="0px"
	 viewBox="0 0 80 80" style="enable-background:new 0 0 80 80;" xml:space="preserve">
<style type="text/css">
	.st0{fill:#FFCC4A;}
	.st1{fill:#FFFFFF;}
	.st2{fill:#5D342B;}
	.st3{fill:#FF9366;}
</style>
<g>
	<circle class="st0" cx="40.6" cy="40.01" r="38.4"/>
</g>
<g>
	<g>
		
			<ellipse transform="matrix(0.1695 -0.9855 0.9855 0.1695 -10.8193 51.4059)" class="st1" cx="25.09" cy="32.12" rx="8.93" ry="8.93"/>
	</g>
	<g>
		<path class="st2" d="M30.34,32.12c0,2.9-2.35,5.24-5.24,5.24s-5.24-2.35-5.24-5.24c0-2.9,2.35-5.24,5.24-5.24
			S30.34,29.23,30.34,32.12z"/>
	</g>
</g>
<g>
	<g>
		<ellipse transform="matrix(0.2307 -0.973 0.973 0.2307 11.3003 79.7756)" class="st1" cx="56.1" cy="32.74" rx="8.93" ry="8.93"/>
	</g>
	<g>
		<circle class="st2" cx="56.1" cy="32.74" r="5.24"/>
	</g>
</g>
<g>
	<path class="st2" d="M49.8,59.82H31.4c-0.88,0-1.59-0.71-1.59-1.59c0-0.88,0.71-1.59,1.59-1.59h18.4c0.88,0,1.59,0.71,1.59,1.59
		C51.39,59.11,50.67,59.82,49.8,59.82z"/>
</g>
<g>
	<path class="st3" d="M27.02,51.2H19.8c-2.1,0-3.8-1.7-3.8-3.8l0,0c0-2.1,1.7-3.8,3.8-3.8h7.21c2.1,0,3.8,1.7,3.8,3.8l0,0
		C30.82,49.5,29.12,51.2,27.02,51.2z"/>
</g>
<g>
	<path class="st3" d="M61.39,51.2h-7.21c-2.1,0-3.8-1.7-3.8-3.8l0,0c0-2.1,1.7-3.8,3.8-3.8h7.21c2.1,0,3.8,1.7,3.8,3.8l0,0
		C65.19,49.5,63.49,51.2,61.39,51.2z"/>
</g>
</svg>
