<?xml version="1.0" encoding="utf-8"?>
<!-- Generator: Adobe Illustrator 28.3.0, SVG Export Plug-In . SVG Version: 6.00 Build 0)  -->
<svg version="1.1" id="图层_1" xmlns="http://www.w3.org/2000/svg" xmlns:xlink="http://www.w3.org/1999/xlink" x="0px" y="0px"
	 viewBox="0 0 80 80" style="enable-background:new 0 0 80 80;" xml:space="preserve">
<style type="text/css">
	.st0{fill:#FFCC4A;}
	.st1{fill:#5D342B;}
</style>
<g>
	
		<ellipse transform="matrix(0.1623 -0.9867 0.9867 0.1623 -6.3051 72.5844)" class="st0" cx="39.6" cy="40.01" rx="39.4" ry="39.4"/>
</g>
<g>
	<path class="st1" d="M30.63,31.26c0,2.81-2.28,5.1-5.1,5.1c-2.81,0-5.1-2.28-5.1-5.1c0-2.81,2.28-5.1,5.1-5.1
		C28.35,26.17,30.63,28.45,30.63,31.26z"/>
</g>
<g>
	<path class="st1" d="M59.3,31.26c0,2.81-2.28,5.1-5.1,5.1c-2.81,0-5.1-2.28-5.1-5.1c0-2.81,2.28-5.1,5.1-5.1
		C57.02,26.17,59.3,28.45,59.3,31.26z"/>
</g>
<g>
	<ellipse class="st1" cx="40.8" cy="58.37" rx="18.57" ry="9.87"/>
</g>
</svg>
