<?xml version="1.0" encoding="utf-8"?>
<!-- Generator: Adobe Illustrator 28.3.0, SVG Export Plug-In . SVG Version: 6.00 Build 0)  -->
<svg version="1.1" id="图层_1" xmlns="http://www.w3.org/2000/svg" xmlns:xlink="http://www.w3.org/1999/xlink" x="0px" y="0px"
	 viewBox="0 0 80 80" style="enable-background:new 0 0 80 80;" xml:space="preserve">
<style type="text/css">
	.st0{fill:#FFCC4A;}
	.st1{fill:#5D342B;}
	.st2{fill:#D4EFFF;}
</style>
<g>
	
		<ellipse transform="matrix(0.2339 -0.9723 0.9723 0.2339 -8.2123 69.3345)" class="st0" cx="39.89" cy="39.88" rx="38.7" ry="38.7"/>
</g>
<g>
	<path class="st1" d="M31.08,31.29c0,2.76-2.24,5-5,5c-2.76,0-5-2.24-5-5c0-2.76,2.24-5,5-5C28.84,26.29,31.08,28.53,31.08,31.29z"
		/>
</g>
<g>
	<path class="st1" d="M59.24,31.29c0,2.76-2.24,5-5,5c-2.76,0-5-2.24-5-5c0-2.76,2.24-5,5-5C57,26.29,59.24,28.53,59.24,31.29z"/>
</g>
<g>
	<path class="st1" d="M61.84,61c-0.77-2.31-1.8-4.39-3.09-6.23c-4.25-6.21-11.11-9.75-18.87-9.75c-7.75,0-14.61,3.53-18.87,9.75
		c-1.27,1.85-2.31,3.93-3.07,6.23H61.84z"/>
</g>
<g>
	<path class="st2" d="M19.17,25.32c0,3.61-2.41,6.54-5.37,6.54s-5.37-2.93-5.37-6.54c0-3.61,5.37-10.3,5.37-10.3
		S19.17,21.71,19.17,25.32z"/>
</g>
</svg>
