<?xml version="1.0" encoding="utf-8"?>
<!-- Generator: Adobe Illustrator 28.3.0, SVG Export Plug-In . SVG Version: 6.00 Build 0)  -->
<svg version="1.1" id="图层_1" xmlns="http://www.w3.org/2000/svg" xmlns:xlink="http://www.w3.org/1999/xlink" x="0px" y="0px"
	 viewBox="0 0 80 80" style="enable-background:new 0 0 80 80;" xml:space="preserve">
<style type="text/css">
	.st0{fill:#FFCC4A;}
	.st1{fill:#5D342B;}
	.st2{fill:#FF9366;}
</style>
<g>
	
		<ellipse transform="matrix(0.1849 -0.9828 0.9828 0.1849 -6.1904 72.1387)" class="st0" cx="40.39" cy="39.8" rx="39.2" ry="39.2"/>
</g>
<g>
	<path class="st1" d="M59.99,35.63c-0.9,0-1.62-0.73-1.62-1.62c0-1.9-1.55-3.45-3.45-3.45c-1.9,0-3.45,1.55-3.45,3.45
		c0,0.9-0.73,1.62-1.62,1.62c-0.9,0-1.62-0.73-1.62-1.62c0-3.69,3-6.69,6.69-6.69c3.69,0,6.69,3,6.69,6.69
		C61.61,34.91,60.89,35.63,59.99,35.63z"/>
</g>
<g>
	<path class="st1" d="M31.47,35.63c-0.9,0-1.62-0.73-1.62-1.62c0-1.9-1.55-3.45-3.45-3.45c-1.9,0-3.45,1.55-3.45,3.45
		c0,0.9-0.73,1.62-1.62,1.62c-0.9,0-1.62-0.73-1.62-1.62c0-3.69,3-6.69,6.69-6.69c3.69,0,6.69,3,6.69,6.69
		C33.09,34.91,32.37,35.63,31.47,35.63z"/>
</g>
<g>
	<path class="st1" d="M40.39,65.8c-10.15,0-18.47-6.05-21.7-15.79c-0.38-1.13,0.24-2.36,1.37-2.73c1.13-0.37,2.36,0.24,2.73,1.37
		c2.63,7.91,9.37,12.83,17.6,12.83c8.23,0,14.97-4.91,17.6-12.83c0.38-1.13,1.6-1.75,2.73-1.37c1.13,0.38,1.75,1.6,1.37,2.73
		C58.86,59.75,50.55,65.8,40.39,65.8z"/>
</g>
<g>
	<path class="st2" d="M26.53,45.26h-7.36c-2.14,0-3.88-1.74-3.88-3.88l0,0c0-2.14,1.74-3.88,3.88-3.88h7.36
		c2.14,0,3.88,1.74,3.88,3.88l0,0C30.41,43.52,28.67,45.26,26.53,45.26z"/>
</g>
<g>
	<path class="st2" d="M61.62,45.26h-7.36c-2.14,0-3.88-1.74-3.88-3.88l0,0c0-2.14,1.74-3.88,3.88-3.88h7.36
		c2.14,0,3.88,1.74,3.88,3.88l0,0C65.49,43.52,63.76,45.26,61.62,45.26z"/>
</g>
</svg>
