<?xml version="1.0" encoding="utf-8"?>
<!-- Generator: Adobe Illustrator 28.3.0, SVG Export Plug-In . SVG Version: 6.00 Build 0)  -->
<svg version="1.1" id="图层_1" xmlns="http://www.w3.org/2000/svg" xmlns:xlink="http://www.w3.org/1999/xlink" x="0px" y="0px"
	 viewBox="0 0 80 80" style="enable-background:new 0 0 80 80;" xml:space="preserve">
<style type="text/css">
	.st0{fill:#FFCC4A;}
	.st1{fill:#5D342B;}
</style>
<g>
	
		<ellipse transform="matrix(0.7071 -0.7071 0.7071 0.7071 -16.813 40.0118)" class="st0" cx="39.89" cy="40.3" rx="38.7" ry="38.7"/>
</g>
<g>
	<ellipse class="st1" cx="39.47" cy="56.21" rx="18.24" ry="9.7"/>
</g>
<g>
	<g>
		<path class="st1" d="M30.41,38.7c-0.49,0-0.98-0.19-1.35-0.56l-11.9-11.9c-0.74-0.74-0.74-1.95,0-2.69c0.74-0.74,1.95-0.74,2.69,0
			l11.9,11.9c0.74,0.74,0.74,1.95,0,2.69C31.39,38.51,30.9,38.7,30.41,38.7z"/>
	</g>
	<g>
		<path class="st1" d="M18.52,38.7c-0.49,0-0.98-0.19-1.35-0.56c-0.74-0.74-0.74-1.95,0-2.69l11.9-11.9c0.74-0.74,1.95-0.74,2.69,0
			c0.74,0.74,0.74,1.95,0,2.69l-11.9,11.9C19.49,38.51,19,38.7,18.52,38.7z"/>
	</g>
</g>
<g>
	<g>
		<path class="st1" d="M61.27,38.7c-0.49,0-0.98-0.19-1.35-0.56l-11.9-11.9c-0.74-0.74-0.74-1.95,0-2.69c0.74-0.74,1.95-0.74,2.69,0
			l11.9,11.9c0.74,0.74,0.74,1.95,0,2.69C62.24,38.51,61.76,38.7,61.27,38.7z"/>
	</g>
	<g>
		<path class="st1" d="M49.37,38.7c-0.49,0-0.98-0.19-1.35-0.56c-0.74-0.74-0.74-1.95,0-2.69l11.9-11.9c0.74-0.74,1.95-0.74,2.69,0
			c0.74,0.74,0.74,1.95,0,2.69l-11.9,11.9C50.35,38.51,49.86,38.7,49.37,38.7z"/>
	</g>
</g>
</svg>
