<?xml version="1.0" encoding="utf-8"?>
<!-- Generator: Adobe Illustrator 28.3.0, SVG Export Plug-In . SVG Version: 6.00 Build 0)  -->
<svg version="1.1" id="图层_1" xmlns="http://www.w3.org/2000/svg" xmlns:xlink="http://www.w3.org/1999/xlink" x="0px" y="0px"
	 viewBox="0 0 80 80" style="enable-background:new 0 0 80 80;" xml:space="preserve">
<style type="text/css">
	.st0{fill:#C87FE6;}
	.st1{fill:#5D342B;}
	.st2{fill:#E199FF;}
</style>
<g>
	<circle class="st0" cx="40.33" cy="40.86" r="38.14"/>
</g>
<g>
	<path class="st1" d="M31.65,36.61c0,2.72-2.21,4.93-4.93,4.93c-2.72,0-4.93-2.21-4.93-4.93c0-2.72,2.21-4.93,4.93-4.93
		C29.44,31.68,31.65,33.89,31.65,36.61z"/>
</g>
<g>
	<path class="st1" d="M59.4,36.61c0,2.72-2.21,4.93-4.93,4.93c-2.72,0-4.93-2.21-4.93-4.93c0-2.72,2.21-4.93,4.93-4.93
		C57.19,31.68,59.4,33.89,59.4,36.61z"/>
</g>
<g>
	<path class="st1" d="M40.33,66.5c-8.13,0-15.32-4.15-19.24-11.11c-0.57-1.01-0.21-2.3,0.8-2.87c1.01-0.57,2.3-0.21,2.87,0.8
		c3.21,5.7,8.89,8.96,15.57,8.96c6.69,0,12.37-3.27,15.58-8.97c0.57-1.01,1.86-1.37,2.87-0.8c1.01,0.57,1.37,1.85,0.8,2.87
		C55.66,62.34,48.46,66.5,40.33,66.5z"/>
</g>
<g>
	<path class="st1" d="M61.82,24.19c0,0-3.25-3.03-9.36-0.85s-6.7,6.59-6.7,6.59L61.82,24.19z"/>
</g>
<g>
	<path class="st1" d="M18.84,24.19c0,0,3.25-3.03,9.36-0.85c6.12,2.19,6.7,6.59,6.7,6.59L18.84,24.19z"/>
</g>
<g>
	<path class="st2" d="M56.97,16.54L56.97,16.54c2.7,2.7,7.26,2,9.02-1.39l6.6-12.7L59.09,7.2C55.16,8.58,54.02,13.59,56.97,16.54z"
		/>
</g>
<g>
	<path class="st2" d="M26.62,16.54L26.62,16.54c-2.7,2.7-7.26,2-9.02-1.39L11,2.45L24.5,7.2C28.43,8.58,29.57,13.59,26.62,16.54z"/>
</g>
</svg>
