<?xml version="1.0" encoding="utf-8"?>
<!-- Generator: Adobe Illustrator 28.3.0, SVG Export Plug-In . SVG Version: 6.00 Build 0)  -->
<svg version="1.1" id="图层_1" xmlns="http://www.w3.org/2000/svg" xmlns:xlink="http://www.w3.org/1999/xlink" x="0px" y="0px"
	 viewBox="0 0 80 80" style="enable-background:new 0 0 80 80;" xml:space="preserve">
<style type="text/css">
	.st0{fill:#FE4242;}
	.st1{fill:#5D342B;}
</style>
<g>
	
		<ellipse transform="matrix(0.7071 -0.7071 0.7071 0.7071 -16.3131 40.2189)" class="st0" cx="40.39" cy="39.8" rx="39.2" ry="39.2"/>
</g>
<g>
	<path class="st1" d="M31.47,35.43c0,2.8-2.27,5.07-5.07,5.07c-2.8,0-5.07-2.27-5.07-5.07c0-2.8,2.27-5.07,5.07-5.07
		C29.2,30.36,31.47,32.63,31.47,35.43z"/>
</g>
<g>
	<path class="st1" d="M59.99,35.43c0,2.8-2.27,5.07-5.07,5.07c-2.8,0-5.07-2.27-5.07-5.07c0-2.8,2.27-5.07,5.07-5.07
		C57.72,30.36,59.99,32.63,59.99,35.43z"/>
</g>
<g>
	<path class="st1" d="M58.29,63.99c-0.76,0-1.49-0.4-1.89-1.1c-3.3-5.86-9.13-9.22-16.01-9.22c-6.87,0-12.71,3.36-16.01,9.21
		c-0.59,1.04-1.91,1.41-2.95,0.82c-1.04-0.59-1.41-1.91-0.82-2.95c4.03-7.15,11.42-11.42,19.78-11.42c8.36,0,15.76,4.27,19.78,11.43
		c0.59,1.04,0.22,2.36-0.82,2.95C59.02,63.9,58.65,63.99,58.29,63.99z"/>
</g>
<g>
	<path class="st1" d="M62.48,20.5c0,0-3.34-3.12-9.62-0.87c-6.29,2.25-6.89,6.78-6.89,6.78L62.48,20.5z"/>
</g>
<g>
	<path class="st1" d="M18.31,20.5c0,0,3.34-3.12,9.62-0.87s6.89,6.78,6.89,6.78L18.31,20.5z"/>
</g>
</svg>
