<?xml version="1.0" encoding="utf-8"?>
<!-- Generator: Adobe Illustrator 28.3.0, SVG Export Plug-In . SVG Version: 6.00 Build 0)  -->
<svg version="1.1" id="图层_1" xmlns="http://www.w3.org/2000/svg" xmlns:xlink="http://www.w3.org/1999/xlink" x="0px" y="0px"
	 viewBox="0 0 80 80" style="enable-background:new 0 0 80 80;" xml:space="preserve">
<style type="text/css">
	.st0{fill:#FFCC4A;}
	.st1{fill:#5D342B;}
	.st2{fill:#75C0FF;}
</style>
<g>
	<circle class="st0" cx="33.16" cy="40.8" r="31.2"/>
</g>
<g>
	<path class="st1" d="M22.02,39.2c-2.94,0-5.33-2.39-5.33-5.33c0-0.71,0.58-1.29,1.29-1.29c0.71,0,1.29,0.58,1.29,1.29
		c0,1.51,1.23,2.74,2.74,2.74c1.51,0,2.74-1.23,2.74-2.74c0-0.71,0.58-1.29,1.29-1.29c0.71,0,1.29,0.58,1.29,1.29
		C27.35,36.82,24.96,39.2,22.02,39.2z"/>
</g>
<g>
	<path class="st1" d="M44.72,39.2c-2.94,0-5.33-2.39-5.33-5.33c0-0.71,0.58-1.29,1.29-1.29c0.71,0,1.29,0.58,1.29,1.29
		c0,1.51,1.23,2.74,2.74,2.74c1.51,0,2.74-1.23,2.74-2.74c0-0.71,0.58-1.29,1.29-1.29c0.71,0,1.29,0.58,1.29,1.29
		C50.05,36.82,47.66,39.2,44.72,39.2z"/>
</g>
<g>
	<path class="st2" d="M62.9,23.22H51.64c-0.62,0-1.17-0.39-1.39-0.97c-0.22-0.58-0.05-1.24,0.43-1.64l8.21-7.02h-7.25
		c-0.82,0-1.48-0.66-1.48-1.48c0-0.82,0.66-1.48,1.48-1.48H62.9c0.62,0,1.17,0.39,1.39,0.97c0.22,0.58,0.05,1.24-0.43,1.64
		l-8.21,7.02h7.25c0.82,0,1.48,0.66,1.48,1.48C64.38,22.55,63.72,23.22,62.9,23.22z"/>
</g>
<g>
	<path class="st2" d="M76.52,29.67h-8.54c-0.62,0-1.17-0.39-1.39-0.97c-0.22-0.58-0.05-1.24,0.43-1.64l5.49-4.69h-4.53
		c-0.82,0-1.48-0.66-1.48-1.48c0-0.82,0.66-1.48,1.48-1.48h8.54c0.62,0,1.17,0.39,1.39,0.97c0.22,0.58,0.05,1.24-0.43,1.64
		l-5.49,4.69h4.53c0.82,0,1.48,0.66,1.48,1.48C78,29.01,77.34,29.67,76.52,29.67z"/>
</g>
<g>
	<ellipse class="st1" cx="33.16" cy="55.56" rx="7.33" ry="8.91"/>
</g>
</svg>
