<?xml version="1.0" encoding="utf-8"?>
<!-- Generator: Adobe Illustrator 28.3.0, SVG Export Plug-In . SVG Version: 6.00 Build 0)  -->
<svg version="1.1" id="图层_1" xmlns="http://www.w3.org/2000/svg" xmlns:xlink="http://www.w3.org/1999/xlink" x="0px" y="0px"
	 viewBox="0 0 80 80" style="enable-background:new 0 0 80 80;" xml:space="preserve">
<style type="text/css">
	.st0{fill:#FFCC4A;}
	.st1{fill:#5D342B;}
</style>
<g>
	
		<ellipse transform="matrix(0.7071 -0.7071 0.7071 0.7071 -16.3271 39.8669)" class="st0" cx="39.96" cy="39.64" rx="39.04" ry="39.04"/>
</g>
<g>
	<path class="st1" d="M31.08,30.98c0,2.79-2.26,5.05-5.05,5.05c-2.79,0-5.05-2.26-5.05-5.05c0-2.79,2.26-5.05,5.05-5.05
		C28.82,25.93,31.08,28.19,31.08,30.98z"/>
</g>
<g>
	<path class="st1" d="M59.48,30.98c0,2.79-2.26,5.05-5.05,5.05c-2.79,0-5.05-2.26-5.05-5.05c0-2.79,2.26-5.05,5.05-5.05
		C57.22,25.93,59.48,28.19,59.48,30.98z"/>
</g>
<g>
	<path class="st1" d="M39.96,65.54c-10.11,0-18.4-6.03-21.62-15.73c-0.37-1.13,0.24-2.35,1.37-2.72c1.13-0.37,2.35,0.24,2.72,1.37
		c2.62,7.88,9.33,12.77,17.53,12.77c8.2,0,14.91-4.89,17.53-12.77c0.38-1.13,1.59-1.74,2.72-1.37c1.13,0.37,1.74,1.59,1.37,2.72
		C58.36,59.51,50.07,65.54,39.96,65.54z"/>
</g>
</svg>
