<?xml version="1.0" encoding="utf-8"?>
<!-- Generator: Adobe Illustrator 28.3.0, SVG Export Plug-In . SVG Version: 6.00 Build 0)  -->
<svg version="1.1" id="图层_1" xmlns="http://www.w3.org/2000/svg" xmlns:xlink="http://www.w3.org/1999/xlink" x="0px" y="0px"
	 viewBox="0 0 80 80" style="enable-background:new 0 0 80 80;" xml:space="preserve">
<style type="text/css">
	.st0{fill:#FFCC4A;}
	.st1{fill:#5D342B;}
	.st2{fill:#FFFFFF;}
	.st3{fill:#D4EFFF;}
</style>
<g>
	
		<ellipse transform="matrix(0.2339 -0.9723 0.9723 0.2339 -8.2445 68.8217)" class="st0" cx="39.55" cy="39.64" rx="38.36" ry="38.36"/>
</g>
<g>
	<path class="st1" d="M30.82,34.51c-0.88,0-1.59-0.71-1.59-1.59c0-1.86-1.51-3.37-3.37-3.37c-1.86,0-3.37,1.51-3.37,3.37
		c0,0.88-0.71,1.59-1.59,1.59c-0.88,0-1.59-0.71-1.59-1.59c0-3.61,2.94-6.55,6.55-6.55c3.61,0,6.55,2.94,6.55,6.55
		C32.41,33.8,31.7,34.51,30.82,34.51z"/>
</g>
<g>
	<path class="st1" d="M58.73,34.51c-0.88,0-1.59-0.71-1.59-1.59c0-1.86-1.51-3.37-3.37-3.37c-1.86,0-3.37,1.51-3.37,3.37
		c0,0.88-0.71,1.59-1.59,1.59c-0.88,0-1.59-0.71-1.59-1.59c0-3.61,2.94-6.55,6.55-6.55c3.61,0,6.55,2.94,6.55,6.55
		C60.32,33.8,59.61,34.51,58.73,34.51z"/>
</g>
<g>
	<path class="st2" d="M61.31,50.22c-0.76,2.29-1.79,4.35-3.06,6.18c-4.21,6.16-11.02,9.66-18.71,9.66c-7.68,0-14.49-3.5-18.71-9.66
		c-1.26-1.83-2.29-3.89-3.05-6.18H61.31z"/>
</g>
<g>
	<path class="st3" d="M66.77,35.63c1.49,1.49,1.7,3.68,0.48,4.9c-1.22,1.22-3.41,1.01-4.9-0.48c-1.49-1.49-2.03-6.45-2.03-6.45
		S65.28,34.15,66.77,35.63z"/>
</g>
<g>
	<path class="st3" d="M12.86,35.63c-1.49,1.49-1.7,3.68-0.48,4.9c1.22,1.22,3.41,1.01,4.9-0.48c1.49-1.49,2.03-6.45,2.03-6.45
		S14.35,34.15,12.86,35.63z"/>
</g>
</svg>
