<?xml version="1.0" encoding="utf-8"?>
<!-- Generator: Adobe Illustrator 28.3.0, SVG Export Plug-In . SVG Version: 6.00 Build 0)  -->
<svg version="1.1" id="图层_1" xmlns="http://www.w3.org/2000/svg" xmlns:xlink="http://www.w3.org/1999/xlink" x="0px" y="0px"
	 viewBox="0 0 80 80" style="enable-background:new 0 0 80 80;" xml:space="preserve">
<style type="text/css">
	.st0{fill:#FFCC4A;}
	.st1{fill:#FE4242;}
	.st2{fill:#FFFFFF;}
</style>
<g>
	
		<ellipse transform="matrix(0.7071 -0.7071 0.7071 0.7071 -16.1907 39.9234)" class="st0" cx="40.1" cy="39.51" rx="38.9" ry="38.9"/>
</g>
<g>
	<path class="st1" d="M38.91,29.61c0-0.02,0-0.03,0-0.05c0-0.16,0-0.31-0.02-0.46c-0.26-4.16-3.71-7.46-7.94-7.46
		c-2.18,0-4.16,0.88-5.6,2.3h0h0c-1.44-1.42-3.42-2.3-5.6-2.3c-4.23,0-7.68,3.29-7.94,7.46c-0.02,0.17-0.03,0.33-0.03,0.51
		c0,1.99,0.74,3.81,1.95,5.21C17.48,40,25.35,42.5,25.35,42.5s7.86-2.51,11.62-7.68C38.17,33.42,38.91,31.6,38.91,29.61z"/>
</g>
<g>
	<path class="st1" d="M68.41,29.77c0-0.02,0-0.03,0-0.05c0-0.16,0-0.31-0.02-0.46c-0.26-4.16-3.71-7.46-7.94-7.46
		c-2.18,0-4.16,0.88-5.6,2.3h0h0c-1.44-1.42-3.42-2.3-5.6-2.3c-4.23,0-7.68,3.29-7.94,7.46c-0.02,0.17-0.03,0.33-0.03,0.51
		c0,1.99,0.74,3.81,1.95,5.21c3.75,5.18,11.62,7.69,11.62,7.69s7.86-2.51,11.62-7.68C67.68,33.58,68.41,31.76,68.41,29.77z"/>
</g>
<g>
	<g>
		<path class="st2" d="M55.38,52.33c0,4.84-3.63,8.99-8.85,10.89c0,0,0,0,0,0.02c-1.98,0.73-4.17,1.14-6.5,1.14s-4.53-0.4-6.5-1.14
			c0-0.02,0-0.02,0-0.02c-5.23-1.9-8.85-6.05-8.85-10.89H55.38z"/>
	</g>
	<g>
		<path class="st1" d="M41.33,70.84h-1.66c-3.57,0-6.46-2.89-6.46-6.46v-6.47h14.57v6.47C47.78,67.95,44.89,70.84,41.33,70.84z"/>
	</g>
</g>
</svg>
